<?xml version="1.0" encoding="UTF-8"?>
<svg xmlns="http://www.w3.org/2000/svg" viewBox="0 0 1920 1080">
  <defs>
    <style>
      .cls-1, .cls-2, .cls-3, .cls-4, .cls-5, .cls-6, .cls-7, .cls-8, .cls-9, .cls-10, .cls-11, .cls-12, .cls-13, .cls-14, .cls-15, .cls-16, .cls-17, .cls-18, .cls-19, .cls-20, .cls-21, .cls-22, .cls-23, .cls-24, .cls-25, .cls-26, .cls-27, .cls-28, .cls-29, .cls-30, .cls-31, .cls-32, .cls-33, .cls-34, .cls-35, .cls-36, .cls-37, .cls-38, .cls-39, .cls-40, .cls-41, .cls-42, .cls-43, .cls-44, .cls-45, .cls-46, .cls-47, .cls-48, .cls-49, .cls-50 {
        stroke-miterlimit: 10;
      }

      .cls-1, .cls-2, .cls-3, .cls-4, .cls-5, .cls-6, .cls-7, .cls-8, .cls-9, .cls-10, .cls-11, .cls-12, .cls-13, .cls-14, .cls-15, .cls-16, .cls-17, .cls-18, .cls-19, .cls-21, .cls-22, .cls-24, .cls-25, .cls-26, .cls-27, .cls-28, .cls-29, .cls-30, .cls-31, .cls-32, .cls-33, .cls-34, .cls-35, .cls-36, .cls-37, .cls-38, .cls-39, .cls-40, .cls-41, .cls-42, .cls-43, .cls-44, .cls-45, .cls-46, .cls-47, .cls-48, .cls-49, .cls-50 {
        fill: none;
      }

      .cls-1, .cls-2, .cls-7, .cls-9, .cls-10, .cls-14, .cls-16, .cls-18, .cls-20, .cls-22, .cls-23, .cls-24, .cls-26, .cls-27, .cls-28, .cls-34, .cls-38, .cls-41, .cls-42, .cls-44 {
        stroke: #5df;
      }

      .cls-1, .cls-23 {
        stroke-width: 2.17px;
      }

      .cls-2 {
        stroke-dasharray: 7.7 7.7;
      }

      .cls-2, .cls-11, .cls-17, .cls-18, .cls-21, .cls-24, .cls-34 {
        stroke-width: .72px;
      }

      .cls-3 {
        stroke-width: .1px;
      }

      .cls-3, .cls-4, .cls-5, .cls-25, .cls-30, .cls-36 {
        stroke: #f2f2f2;
      }

      .cls-4, .cls-31, .cls-32 {
        stroke-width: .13px;
      }

      .cls-5 {
        stroke-width: .2px;
      }

      .cls-6 {
        stroke-width: .2px;
      }

      .cls-6, .cls-33 {
        stroke: #fffcfc;
      }

      .cls-7 {
        stroke-width: .5px;
      }

      .cls-8 {
        stroke-width: 1.48px;
      }

      .cls-8, .cls-13, .cls-15, .cls-47, .cls-50 {
        stroke: #c7f7ff;
      }

      .cls-9 {
        stroke-width: .49px;
      }

      .cls-10, .cls-35, .cls-49 {
        stroke-width: 1.02px;
      }

      .cls-11, .cls-12, .cls-29, .cls-31, .cls-45, .cls-48 {
        stroke: #5df;
      }

      .cls-12 {
        stroke-width: .39px;
      }

      .cls-13 {
        stroke-width: 3.02px;
      }

      .cls-14, .cls-20 {
        stroke-width: 1.78px;
      }

      .cls-15, .cls-46 {
        stroke-width: .78px;
      }

      .cls-16 {
        fill-rule: evenodd;
      }

      .cls-16, .cls-42 {
        stroke-width: .78px;
      }

      .cls-17, .cls-19, .cls-35, .cls-37, .cls-40, .cls-46 {
        stroke: #c7f7ff;
      }

      .cls-51, .cls-52 {
        font-size: 14.21px;
      }

      .cls-51, .cls-52, .cls-53, .cls-54 {
        font-family: SimHei, SimHei;
      }

      .cls-51, .cls-53, .cls-54 {
        fill: #bfbfbf;
      }

      .cls-52 {
        fill: gray;
      }

      .cls-18 {
        stroke-dasharray: 7.6 7.6;
      }

      .cls-19 {
        stroke-width: .59px;
      }

      .cls-20, .cls-23 {
        fill: #001123;
      }

      .cls-53 {
        font-size: 11.92px;
      }

      .cls-21 {
        stroke: #f7ff51;
      }

      .cls-22 {
        stroke-width: .43px;
      }

      .cls-24 {
        stroke-dasharray: 7.69 7.69;
      }

      .cls-25, .cls-43, .cls-48 {
        stroke-width: .19px;
      }

      .cls-26 {
        stroke-width: .8px;
      }

      .cls-27 {
        stroke-width: .56px;
      }

      .cls-28 {
        stroke-width: .59px;
      }

      .cls-29 {
        stroke-width: .56px;
      }

      .cls-30, .cls-39 {
        stroke-width: .14px;
      }

      .cls-32, .cls-43 {
        stroke: #fff;
      }

      .cls-33 {
        stroke-width: .4px;
      }

      .cls-36 {
        stroke-width: .1px;
      }

      .cls-54 {
        font-size: 10.12px;
      }

      .cls-37, .cls-47 {
        stroke-width: 1.11px;
      }

      .cls-38 {
        stroke-width: .62px;
      }

      .cls-39, .cls-49 {
        stroke: #f7ff51;
      }

      .cls-40, .cls-45 {
        stroke-width: 1.45px;
      }

      .cls-41 {
        stroke-width: .65px;
      }

      .cls-44 {
        stroke-width: .56px;
      }

      .cls-50 {
        stroke-width: 1.18px;
      }
    </style>
  </defs>
  <g id="_图层_20" data-name="图层 20">
    <text class="cls-52" transform="translate(1448.7 366.74)"><tspan x="0" y="0">7号门</tspan></text>
    <text class="cls-52" transform="translate(1064.16 361.66)"><tspan x="0" y="0">6号门</tspan></text>
    <text class="cls-52" transform="translate(1467.21 794.79) scale(.85 1)"><tspan x="0" y="0">8号门</tspan></text>
    <text class="cls-52" transform="translate(999.14 797.72)"><tspan x="0" y="0">9号门</tspan></text>
    <text class="cls-52" transform="translate(780.83 797.73)"><tspan x="0" y="0">10号门</tspan></text>
    <text class="cls-52" transform="translate(430.2 793.77)"><tspan x="0" y="0">11号门</tspan></text>
    <text class="cls-52" transform="translate(429.04 289.13)"><tspan x="0" y="0">12号门</tspan></text>
    <text class="cls-51" transform="translate(1275.38 565.19)"><tspan x="0" y="0">K区产品管理室</tspan></text>
    <text class="cls-51" transform="translate(1272.14 439.79)"><tspan x="0" y="0">L区产品管理室</tspan></text>
    <text class="cls-51" transform="translate(1275.39 690.12)"><tspan x="0" y="0">J区产品管理室</tspan></text>
    <text class="cls-51" transform="translate(861.42 691.73)"><tspan x="0" y="0">D区产品管理室</tspan></text>
    <text class="cls-51" transform="translate(860.72 561.53)"><tspan x="0" y="0">E区产品管理室</tspan></text>
    <text class="cls-53" transform="translate(860.61 521.21)"><tspan x="0" y="0">E01</tspan></text>
    <text class="cls-53" transform="translate(886.38 473.95)"><tspan x="0" y="0">F02</tspan></text>
    <text class="cls-53" transform="translate(920.59 473.82)"><tspan x="0" y="0">F01</tspan></text>
    <text class="cls-53" transform="translate(855.07 652.4)"><tspan x="0" y="0">D01</tspan></text>
    <text class="cls-53" transform="translate(952.67 521.08)"><tspan x="0" y="0">E02</tspan></text>
    <text class="cls-53" transform="translate(932.26 652.4)"><tspan x="0" y="0">D02</tspan></text>
    <text class="cls-53" transform="translate(1065.17 652.27)"><tspan x="0" y="0">D03</tspan></text>
    <text class="cls-53" transform="translate(925.81 602.77)"><tspan x="0" y="0">E04</tspan></text>
    <text class="cls-53" transform="translate(1067.35 602.64)"><tspan x="0" y="0">E03</tspan></text>
    <text class="cls-53" transform="translate(1224.05 528)"><tspan x="0" y="0">K01</tspan></text>
    <text class="cls-53" transform="translate(1237.67 652.13)"><tspan x="0" y="0">J01</tspan></text>
    <text class="cls-53" transform="translate(1281.27 652.27)"><tspan x="0" y="0">J02</tspan></text>
    <text class="cls-53" transform="translate(1353.61 652)"><tspan x="0" y="0">J03</tspan></text>
    <text class="cls-53" transform="translate(1392.34 652.4)"><tspan x="0" y="0">J04</tspan></text>
    <text class="cls-53" transform="translate(1289.69 527.87)"><tspan x="0" y="0">K02</tspan></text>
    <text class="cls-53" transform="translate(1360.34 527.87)"><tspan x="0" y="0">K03</tspan></text>
    <text class="cls-53" transform="translate(1237.67 602.77)"><tspan x="0" y="0">K07</tspan></text>
    <text class="cls-53" transform="translate(1279.56 602.77)"><tspan x="0" y="0">K06</tspan></text>
    <text class="cls-53" transform="translate(1329.25 602.51)"><tspan x="0" y="0">K05</tspan></text>
    <text class="cls-53" transform="translate(1385.89 602.38)"><tspan x="0" y="0">K04</tspan></text>
    <text class="cls-53" transform="translate(855.07 602.77)"><tspan x="0" y="0">E05</tspan></text>
    <text class="cls-51" transform="translate(505.05 429.86) scale(.96 1)"><tspan x="0" y="0">A区</tspan><tspan x="-24.86" y="17.05">产品管理室</tspan></text>
    <text class="cls-54" transform="translate(853.89 861.81)"><tspan x="0" y="0">汽车道闸</tspan></text>
    <text class="cls-54" transform="translate(732.58 860.79)"><tspan x="0" y="0">人脸门禁</tspan></text>
    <text class="cls-54" transform="translate(632.84 860.66)"><tspan x="0" y="0">火车道管控门</tspan></text>
    <text class="cls-54" transform="translate(546.84 860.61)"><tspan x="0" y="0">联锁管控门</tspan></text>
    <text class="cls-54" transform="translate(989.83 860.35)"><tspan x="0" y="0">火车道闸</tspan></text>
    <text class="cls-51" transform="translate(921.06 439.79) scale(.96 1)"><tspan x="0" y="0">F区热处理区间</tspan></text>
    <text class="cls-51" transform="translate(672.23 439.79) scale(.96 1)"><tspan x="0" y="0">F区半成品货位区</tspan></text>
    <polyline class="cls-1" points="783.62 771.02 778.58 771.02 778.58 726.11"/>
    <line class="cls-34" x1="1036.65" y1="485.28" x2="1036.65" y2="479.07"/>
  </g>
  <g id="wall">
    <line id="K" class="cls-9" x1="1279.47" y1="610.9" x2="1253.84" y2="610.9"/>
    <line id="K-2" data-name="K" class="cls-9" x1="1329.17" y1="610.9" x2="1297.34" y2="610.9"/>
    <line id="K-3" data-name="K" class="cls-9" x1="1385.8" y1="610.9" x2="1347.04" y2="610.9"/>
    <polyline id="K-4" data-name="K" class="cls-9" points="1375.54 512.8 1443.59 512.8 1443.59 610.9 1400.24 610.9"/>
    <line id="K-5" data-name="K" class="cls-9" x1="1304.22" y1="512.8" x2="1364.09" y2="512.8"/>
    <line id="K-6" data-name="K" class="cls-9" x1="1239.43" y1="512.8" x2="1292.76" y2="512.8"/>
    <polyline id="K-7" data-name="K" class="cls-9" points="1235.78 610.9 1199.09 610.9 1199.09 512.8 1227.98 512.8"/>
    <line id="J" class="cls-44" x1="1371.58" y1="636.42" x2="1394.24" y2="636.42"/>
    <line id="J-2" data-name="J" class="cls-44" x1="1295.35" y1="636.42" x2="1353.53" y2="636.42"/>
    <line id="J-3" data-name="J" class="cls-44" x1="1255.63" y1="636.42" x2="1281.18" y2="636.42"/>
    <path class="cls-44" d="M1199.54,726.96c.12-20.38.12-70.07.12-90.41,6.26,0,31.77,0,37.92-.13"/>
    <line id="F热处理区间" class="cls-26" x1="922.61" y1="479.07" x2="904.34" y2="479.07"/>
    <polyline id="F热处理区间-2" data-name="F热处理区间" class="cls-34" points="886.29 479.07 831.37 479.07 831.37 389.67 1112.31 389.67 1112.31 479.07 938.56 479.07"/>
    <polyline id="E成品区" class="cls-41" points="1036.82 505.53 1112.61 505.53 1112.27 611.11 1082.72 611.11"/>
    <line id="E成品区-2" data-name="E成品区" class="cls-41" x1="879.48" y1="505.48" x2="951.21" y2="505.48"/>
    <polyline id="E成品区-3" data-name="E成品区" class="cls-41" points="853.88 611.29 831.37 611.11 831.43 505.48 861.43 505.48"/>
    <line id="E成品区-4" data-name="E成品区" class="cls-41" x1="923.09" y1="611.11" x2="871.74" y2="611.29"/>
    <rect id="E精整区" class="cls-34" x="668.29" y="510.41" width="110.28" height="101.47"/>
    <polyline id="D精整区" class="cls-34" points="668.29 726.11 668.29 636.03 778.57 636.03 778.57 726.11"/>
    <line id="D成品库区" class="cls-38" x1="1036.48" y1="611.11" x2="1064.67" y2="611.11"/>
    <line id="D成品库区-2" data-name="D成品库区" class="cls-38" x1="1036" y1="636.08" x2="1065.31" y2="636.08"/>
    <line id="D成品库区-3" data-name="D成品库区" class="cls-38" x1="871.46" y1="637.38" x2="932.17" y2="637.38"/>
    <polyline id="D成品库区-4" data-name="D成品库区" class="cls-1" points="831.41 726.96 831.41 771.02 828.11 771.02"/>
    <polyline id="D成品库区-5" data-name="D成品库区" class="cls-38" points="853.41 637.38 831.39 637.38 831.41 726.96"/>
    <polyline id="C" class="cls-34" points="639.12 726.11 639.12 636.16 479.17 636.16 479.17 767.07 470.81 767.07"/>
    <rect id="B" class="cls-34" x="479.17" y="510.4" width="159.95" height="99.94"/>
    <line class="cls-22" x1="1036.65" y1="499.25" x2="1036.43" y2="628.9"/>
    <g>
      <line class="cls-34" x1="448.57" y1="334.25" x2="448.57" y2="338.1"/>
      <line class="cls-18" x1="448.57" y1="345.7" x2="448.57" y2="737.21"/>
      <line class="cls-34" x1="448.57" y1="741.01" x2="448.57" y2="744.85"/>
    </g>
    <g>
      <line class="cls-34" x1="804.08" y1="380.72" x2="804.08" y2="384.57"/>
      <line class="cls-24" x1="804.08" y1="392.26" x2="804.08" y2="741.97"/>
      <line class="cls-34" x1="804.08" y1="745.81" x2="804.08" y2="749.66"/>
    </g>
    <g>
      <line class="cls-34" x1="1476.7" y1="407.65" x2="1476.7" y2="411.5"/>
      <line class="cls-2" x1="1476.7" y1="419.2" x2="1476.7" y2="738.77"/>
      <line class="cls-34" x1="1476.7" y1="742.62" x2="1476.7" y2="746.47"/>
    </g>
    <line class="cls-41" x1="982.39" y1="478.94" x2="982.39" y2="479.07"/>
    <line class="cls-41" x1="982.39" y1="485.81" x2="982.39" y2="479.07"/>
    <polyline class="cls-41" points="982.35 616.33 982.37 542.99 982.41 497.26"/>
    <polyline class="cls-41" points="989.63 771.02 982.37 771.02 982.37 634.38"/>
    <line class="cls-27" x1="1443.57" y1="479.18" x2="1199.54" y2="479.18"/>
    <line class="cls-38" x1="1112.29" y1="636.09" x2="1083.36" y2="636.09"/>
    <line class="cls-41" x1="982.35" y1="611.11" x2="940.88" y2="611.11"/>
  </g>
  <g id="wall_outer">
    <line class="cls-23" x1="1199.54" y1="726.96" x2="1443.59" y2="726.96"/>
    <polyline class="cls-14" points="1498.94 769.48 1508.49 769.48 1508.49 390.13 1498.73 390.13"/>
    <line class="cls-28" x1="1199.09" y1="610.9" x2="1199.09" y2="615.66"/>
    <line class="cls-28" x1="1443.59" y1="501.71" x2="1443.59" y2="512.8"/>
    <polyline class="cls-28" points="1443.59 610.9 1443.59 769.3 1454.45 769.34"/>
    <line class="cls-28" x1="1443.57" y1="610.9" x2="1443.57" y2="617.86"/>
    <line class="cls-28" x1="831.39" y1="618.04" x2="831.37" y2="611.29"/>
    <line class="cls-28" x1="831.41" y1="637.21" x2="831.41" y2="631.41"/>
    <line class="cls-28" x1="1199.54" y1="631.75" x2="1199.54" y2="637.09"/>
    <line class="cls-28" x1="1199.09" y1="502.41" x2="1199.09" y2="512.8"/>
    <line class="cls-28" x1="1199.54" y1="389.67" x2="1199.54" y2="489.92"/>
    <polyline class="cls-28" points="1036 619.91 1036 771.02 1034.12 771.02"/>
    <line class="cls-14" x1="778.57" y1="726.11" x2="479.17" y2="726.11"/>
    <line class="cls-20" x1="1454.28" y1="390.09" x2="1199.54" y2="389.67"/>
    <polyline class="cls-14" points="426.32 767.07 416.19 767.07 416.19 321.21 416.19 309.46 427.69 309.46"/>
    <line class="cls-28" x1="1412.29" y1="636.42" x2="1443.6" y2="636.42"/>
    <line class="cls-28" x1="1112.2" y1="726.96" x2="1036.02" y2="726.96"/>
    <line class="cls-1" x1="982.39" y1="726.96" x2="831.41" y2="726.96"/>
    <line class="cls-1" x1="1112.2" y1="726.96" x2="1036.02" y2="726.96"/>
    <line class="cls-28" x1="969.26" y1="505.48" x2="982.41" y2="505.48"/>
  </g>
  <g id="_图层_15" data-name="图层 15">
    <circle id="gate_person_A_02_pivot" class="cls-6" cx="871.74" cy="611.29" r="2.4"/>
    <line id="gate_person_A_02_leaf" class="cls-8" x1="871.93" y1="611.29" x2="853.88" y2="611.29"/>
    <circle id="gate_person_A_02_pivot-2" data-name="gate_person_A_02_pivot" class="cls-6" cx="853.59" cy="637.38" r="2.4"/>
    <line id="gate_person_A_02_leaf-2" data-name="gate_person_A_02_leaf" class="cls-8" x1="853.41" y1="637.38" x2="871.46" y2="637.38"/>
    <circle id="gate_person_A_02_pivot-3" data-name="gate_person_A_02_pivot" class="cls-6" cx="920.69" cy="479.07" r="2.4"/>
    <line id="gate_person_A_02_leaf-3" data-name="gate_person_A_02_leaf" class="cls-8" x1="920.51" y1="479.07" x2="938.56" y2="479.07"/>
    <circle id="gate_person_A_02_pivot-4" data-name="gate_person_A_02_pivot" class="cls-6" cx="886.48" cy="479.07" r="2.4"/>
    <line id="gate_person_A_02_leaf-4" data-name="gate_person_A_02_leaf" class="cls-8" x1="886.29" y1="479.07" x2="904.34" y2="479.07"/>
    <circle id="gate_person_A_02_pivot-5" data-name="gate_person_A_02_pivot" class="cls-6" cx="951.39" cy="505.53" r="2.4"/>
    <line id="gate_person_A_02_leaf-5" data-name="gate_person_A_02_leaf" class="cls-8" x1="951.21" y1="505.53" x2="969.26" y2="505.53"/>
    <circle id="gate_person_A_02_pivot-6" data-name="gate_person_A_02_pivot" class="cls-6" cx="861.61" cy="505.53" r="2.4"/>
    <line id="gate_person_A_02_leaf-6" data-name="gate_person_A_02_leaf" class="cls-8" x1="861.43" y1="505.53" x2="879.48" y2="505.53"/>
    <circle id="gate_person_A_02_pivot-7" data-name="gate_person_A_02_pivot" class="cls-33" cx="540.42" cy="857.31" r="4.91"/>
    <line id="gate_person_A_02_leaf-7" data-name="gate_person_A_02_leaf" class="cls-13" x1="503.49" y1="857.31" x2="540.42" y2="857.31"/>
    <circle id="gate_person_A_02_pivot-8" data-name="gate_person_A_02_pivot" class="cls-6" cx="932.36" cy="637.38" r="2.4"/>
    <line id="gate_person_A_02_leaf-8" data-name="gate_person_A_02_leaf" class="cls-8" x1="932.17" y1="637.38" x2="950.22" y2="637.38"/>
    <circle id="gate_person_A_02_pivot-9" data-name="gate_person_A_02_pivot" class="cls-6" cx="1237.76" cy="636.42" r="2.4"/>
    <line id="gate_person_A_02_leaf-9" data-name="gate_person_A_02_leaf" class="cls-8" x1="1237.58" y1="636.42" x2="1255.63" y2="636.42"/>
    <circle id="gate_person_A_02_pivot-10" data-name="gate_person_A_02_pivot" class="cls-6" cx="1224.15" cy="512.8" r="2.4"/>
    <line id="gate_person_A_02_leaf-10" data-name="gate_person_A_02_leaf" class="cls-8" x1="1223.97" y1="512.8" x2="1242.02" y2="512.8"/>
    <circle id="gate_person_A_02_pivot-11" data-name="gate_person_A_02_pivot" class="cls-6" cx="1289.79" cy="512.8" r="2.4"/>
    <line id="gate_person_A_02_leaf-11" data-name="gate_person_A_02_leaf" class="cls-8" x1="1289.6" y1="512.8" x2="1307.66" y2="512.8"/>
    <circle id="gate_person_A_02_pivot-12" data-name="gate_person_A_02_pivot" class="cls-6" cx="1360.44" cy="512.8" r="2.4"/>
    <line id="gate_person_A_02_leaf-12" data-name="gate_person_A_02_leaf" class="cls-8" x1="1360.26" y1="512.8" x2="1378.31" y2="512.8"/>
    <circle id="gate_person_A_02_pivot-13" data-name="gate_person_A_02_pivot" class="cls-6" cx="1253.65" cy="610.9" r="2.4"/>
    <line id="gate_person_A_02_leaf-13" data-name="gate_person_A_02_leaf" class="cls-8" x1="1253.84" y1="610.9" x2="1235.78" y2="610.9"/>
    <circle id="gate_person_A_02_pivot-14" data-name="gate_person_A_02_pivot" class="cls-6" cx="1297.34" cy="610.9" r="2.4"/>
    <line id="gate_person_A_02_leaf-14" data-name="gate_person_A_02_leaf" class="cls-8" x1="1297.52" y1="610.9" x2="1279.47" y2="610.9"/>
    <circle id="gate_person_A_02_pivot-15" data-name="gate_person_A_02_pivot" class="cls-6" cx="1347.04" cy="610.9" r="2.4"/>
    <line id="gate_person_A_02_leaf-15" data-name="gate_person_A_02_leaf" class="cls-8" x1="1347.22" y1="610.9" x2="1329.17" y2="610.9"/>
    <circle id="gate_person_A_02_pivot-16" data-name="gate_person_A_02_pivot" class="cls-6" cx="1403.67" cy="610.9" r="2.4"/>
    <line id="gate_person_A_02_leaf-16" data-name="gate_person_A_02_leaf" class="cls-8" x1="1403.86" y1="610.9" x2="1385.8" y2="610.9"/>
    <circle id="gate_person_A_02_pivot-17" data-name="gate_person_A_02_pivot" class="cls-6" cx="1281.36" cy="636.42" r="2.4"/>
    <line id="gate_person_A_02_leaf-17" data-name="gate_person_A_02_leaf" class="cls-8" x1="1281.18" y1="636.42" x2="1299.23" y2="636.42"/>
    <circle id="gate_person_A_02_pivot-18" data-name="gate_person_A_02_pivot" class="cls-6" cx="1353.71" cy="636.42" r="2.4"/>
    <line id="gate_person_A_02_leaf-18" data-name="gate_person_A_02_leaf" class="cls-8" x1="1353.53" y1="636.42" x2="1371.58" y2="636.42"/>
    <circle id="gate_person_A_02_pivot-19" data-name="gate_person_A_02_pivot" class="cls-6" cx="1394.42" cy="636.42" r="2.4"/>
    <line id="gate_person_A_02_leaf-19" data-name="gate_person_A_02_leaf" class="cls-8" x1="1394.24" y1="636.42" x2="1412.29" y2="636.42"/>
    <circle id="gate_person_A_02_pivot-20" data-name="gate_person_A_02_pivot" class="cls-6" cx="1065.49" cy="636.08" r="2.4"/>
    <line id="gate_person_A_02_leaf-20" data-name="gate_person_A_02_leaf" class="cls-8" x1="1065.31" y1="636.08" x2="1083.36" y2="636.08"/>
    <circle id="gate_person_A_02_pivot-21" data-name="gate_person_A_02_pivot" class="cls-6" cx="982.41" cy="616.51" r="2.4"/>
    <line id="gate_person_A_02_leaf-21" data-name="gate_person_A_02_leaf" class="cls-8" x1="982.41" y1="616.33" x2="982.41" y2="634.38"/>
    <circle id="gate_person_A_02_pivot-22" data-name="gate_person_A_02_pivot" class="cls-6" cx="940.96" cy="611.2" r="2.4"/>
    <line id="gate_person_A_02_leaf-22" data-name="gate_person_A_02_leaf" class="cls-8" x1="941.14" y1="611.2" x2="923.09" y2="611.2"/>
    <circle id="gate_person_A_02_pivot-23" data-name="gate_person_A_02_pivot" class="cls-6" cx="1082.54" cy="611.11" r="2.4"/>
    <line id="gate_person_A_02_leaf-23" data-name="gate_person_A_02_leaf" class="cls-8" x1="1082.72" y1="611.11" x2="1064.67" y2="611.11"/>
    <circle id="gate_person_A_02_pivot-24" data-name="gate_person_A_02_pivot" class="cls-6" cx="982.39" cy="485.81" r="2.4"/>
    <line id="gate_person_A_02_leaf-24" data-name="gate_person_A_02_leaf" class="cls-50" x1="982.39" y1="485.81" x2="982.39" y2="497.26"/>
    <line class="cls-42" x1="982.37" y1="637.38" x2="950.22" y2="637.38"/>
    <polygon class="cls-34" points="667.99 479 778.27 479 778.57 389.67 668.29 389.67 667.99 479"/>
    <polygon class="cls-34" points="568.4 353.97 639.12 353.97 638.82 479 568.1 479 568.4 353.97"/>
    <polygon class="cls-34" points="479.77 389.67 551.11 389.67 550.81 479 479.47 479 479.77 389.67"/>
    <polyline class="cls-1" points="479.77 389.67 479.77 321.21 479.77 309.46 472.18 309.46"/>
  </g>
  <g id="_图层_11" data-name="图层 11">
    <path id="gate_fullheight_A_01_leaf" class="cls-17" d="M1443.6,624.67v-6.29M1443.57,624.67h-6.29M1443.6,624.67v6.27M1443.6,624.67h6.26"/>
    <path id="gate_fullheight_A_01_static" class="cls-11" d="M1436.69,624.66v-6.66h13.84v6.65M1436.65,630.67v.7h13.84v-.7"/>
    <circle id="gate_fullheight_A_01_pivot" class="cls-3" cx="1443.57" cy="624.67" r="6.29"/>
    <path id="gate_fullheight_A_01_leaf-2" data-name="gate_fullheight_A_01_leaf" class="cls-17" d="M831.37,624.6v6.29M831.41,624.6h6.29M831.37,624.6v-6.27M831.38,624.6h-6.26"/>
    <path id="gate_fullheight_A_01_static-2" data-name="gate_fullheight_A_01_static" class="cls-11" d="M838.29,624.61v6.66h-13.84v-6.65M838.33,618.6v-.7h-13.84v.7"/>
    <circle id="gate_fullheight_A_01_pivot-2" data-name="gate_fullheight_A_01_pivot" class="cls-3" cx="831.41" cy="624.6" r="6.29"/>
  </g>
  <g id="_图层_11_复制" data-name="图层 11_复制">
    <path id="gate_fullheight_A_01_leaf-3" data-name="gate_fullheight_A_01_leaf" class="cls-17" d="M1443.58,495.01v-6.29M1443.55,495.01h-6.29M1443.58,495.01v6.27M1443.58,495.01h6.26"/>
    <path id="gate_fullheight_A_01_static-3" data-name="gate_fullheight_A_01_static" class="cls-11" d="M1436.67,495v-6.66h13.84v6.65M1436.62,501.01v.7h13.84v-.7"/>
    <circle id="gate_fullheight_A_01_pivot-3" data-name="gate_fullheight_A_01_pivot" class="cls-3" cx="1443.55" cy="495.01" r="6.29"/>
    <path id="gate_fullheight_A_01_leaf-4" data-name="gate_fullheight_A_01_leaf" class="cls-40" d="M716.21,857.97v-12.67M716.14,857.98h-12.65M716.21,857.97v12.62M716.2,857.98h12.59"/>
    <path id="gate_fullheight_A_01_static-4" data-name="gate_fullheight_A_01_static" class="cls-45" d="M702.3,857.95v-13.4h27.85v13.39M702.21,870.05v1.41h27.85v-1.41"/>
    <circle id="gate_fullheight_A_01_pivot-4" data-name="gate_fullheight_A_01_pivot" class="cls-5" cx="716.14" cy="857.98" r="12.65"/>
    <path id="gate_fullheight_A_01_leaf-5" data-name="gate_fullheight_A_01_leaf" class="cls-19" d="M1443.54,411.64v-6.29M1443.51,411.65h-6.29M1443.54,411.64v6.27M1443.54,411.65h6.26"/>
    <path id="gate_fullheight_A_01_static-5" data-name="gate_fullheight_A_01_static" class="cls-11" d="M1436.63,411.64v-6.66h13.84v6.65M1436.58,417.65v.7h13.84v-.7"/>
    <circle id="gate_fullheight_A_01_pivot-5" data-name="gate_fullheight_A_01_pivot" class="cls-3" cx="1443.51" cy="411.65" r="6.29"/>
    <path id="gate_fullheight_A_01_leaf-6" data-name="gate_fullheight_A_01_leaf" class="cls-17" d="M1443.53,411.63,1443.53,417.95,1443.53,411.66,1449.8,411.63,1443.53,411.63,1443.53,405.37"/>
    <line class="cls-34" x1="1443.55" y1="418.54" x2="1443.55" y2="488.31"/>
    <line class="cls-34" x1="1443.55" y1="390.07" x2="1443.55" y2="404.7"/>
  </g>
  <g id="_图层_6" data-name="图层 6">
    <path id="gate_barrier_A_02_static" class="cls-34" d="M989.63,776.56v-11.07c0-1.03.83-1.86,1.86-1.86h5.51c1.03,0,1.86.83,1.86,1.86v11.07c0,1.03-.83,1.86-1.86,1.86h-5.51c-1.03,0-1.86-.83-1.86-1.86ZM997.51,775.69v-9.35c0-.57-.46-1.03-1.03-1.03h-4.49c-.57,0-1.03.46-1.03,1.03v9.35c0,.57.46,1.03,1.03,1.03h4.49c.57,0,1.03-.46,1.03-1.03Z"/>
    <ellipse id="gate_barrier_A_02_pivot" class="cls-36" cx="994.24" cy="771.02" rx="1.68" ry="1.7"/>
    <path id="gate_barrier_A_02_leaf" class="cls-17" d="M992.56,771.38v-.73c0-.42.34-.75.75-.75h40.05c.42,0,.75.34.75.75v.73c0,.42-.34.75-.75.75h-40.05c-.42,0-.75-.34-.75-.75ZM1033.66,771.42v-.81c0-.24-.2-.44-.44-.44h-39.75c-.24,0-.44.2-.44.44v.81c0,.24.2.44.44.44h39.75c.24,0,.44-.2.44-.44ZM1004.07,770.18l-3.49,1.69M1008.33,771.87l3.49-1.69M1016.09,771.87l3.49-1.69M1023.85,771.87l3.49-1.69"/>
  </g>
  <g id="_图层_8" data-name="图层 8">
    <path id="gate_tripod_A_02_route_01" class="cls-4" d="M1192.33,619.58s-1.25-3.92,6.76-3.92"/>
    <path id="gate_tripod_A_02_route_02" class="cls-32" d="M1205.86,619.58s.69-3.92-6.76-3.92"/>
    <path id="gate_tripod_A_02_route_03" class="cls-4" d="M1205.86,619.58s-6.75,3.38-13.53,0"/>
    <line id="gate_tripod_A_02_rotor_03" class="cls-15" x1="1192.33" y1="619.58" x2="1199.09" y2="627.76"/>
    <line id="gate_tripod_A_02_rotor_02" class="cls-46" x1="1199.09" y1="615.66" x2="1199.09" y2="627.76"/>
    <line id="gate_tripod_A_02_rotor_01" class="cls-15" x1="1199.09" y1="627.76" x2="1205.86" y2="619.58"/>
    <rect id="gate_tripod_A_02_static" class="cls-12" x="1190.36" y="623.95" width="17.47" height="7.64"/>
    <rect id="gate_tripod_A_02_static-2" data-name="gate_tripod_A_02_static" class="cls-31" x="1190.88" y="624.47" width="16.43" height="6.6"/>
    <line id="gate_tripod_A_02_static-3" data-name="gate_tripod_A_02_static" class="cls-31" x1="1190.36" y1="623.95" x2="1190.88" y2="624.47"/>
    <line id="gate_tripod_A_02_static-4" data-name="gate_tripod_A_02_static" class="cls-31" x1="1207.83" y1="623.95" x2="1207.31" y2="624.47"/>
    <line id="gate_tripod_A_02_static-5" data-name="gate_tripod_A_02_static" class="cls-31" x1="1207.83" y1="631.58" x2="1207.31" y2="631.06"/>
    <line id="gate_tripod_A_02_static-6" data-name="gate_tripod_A_02_static" class="cls-31" x1="1190.36" y1="631.58" x2="1190.88" y2="631.06"/>
    <circle id="gate_tripod_A_02_pivot" class="cls-32" cx="1199.09" cy="627.76" r="1.48"/>
    <path id="gate_tripod_A_02_route_01-2" data-name="gate_tripod_A_02_route_01" class="cls-4" d="M1043.49,497.28s1.25,3.92-6.76,3.92"/>
    <path id="gate_tripod_A_02_route_02-2" data-name="gate_tripod_A_02_route_02" class="cls-32" d="M1029.96,497.28s-.69,3.92,6.76,3.92"/>
    <path id="gate_tripod_A_02_route_03-2" data-name="gate_tripod_A_02_route_03" class="cls-4" d="M1029.96,497.28s6.75-3.38,13.53,0"/>
    <line id="gate_tripod_A_02_rotor_03-2" data-name="gate_tripod_A_02_rotor_03" class="cls-15" x1="1043.49" y1="497.28" x2="1036.72" y2="489.1"/>
    <line id="gate_tripod_A_02_rotor_02-2" data-name="gate_tripod_A_02_rotor_02" class="cls-46" x1="1036.72" y1="501.21" x2="1036.72" y2="489.1"/>
    <line id="gate_tripod_A_02_rotor_01-2" data-name="gate_tripod_A_02_rotor_01" class="cls-15" x1="1036.72" y1="489.1" x2="1029.96" y2="497.28"/>
    <rect id="gate_tripod_A_02_static-7" data-name="gate_tripod_A_02_static" class="cls-12" x="1027.99" y="485.28" width="17.47" height="7.64"/>
    <rect id="gate_tripod_A_02_static-8" data-name="gate_tripod_A_02_static" class="cls-31" x="1028.51" y="485.8" width="16.43" height="6.6"/>
    <line id="gate_tripod_A_02_static-9" data-name="gate_tripod_A_02_static" class="cls-31" x1="1045.46" y1="492.92" x2="1044.94" y2="492.4"/>
    <line id="gate_tripod_A_02_static-10" data-name="gate_tripod_A_02_static" class="cls-31" x1="1027.99" y1="492.92" x2="1028.51" y2="492.4"/>
    <line id="gate_tripod_A_02_static-11" data-name="gate_tripod_A_02_static" class="cls-31" x1="1027.99" y1="485.28" x2="1028.51" y2="485.8"/>
    <line id="gate_tripod_A_02_static-12" data-name="gate_tripod_A_02_static" class="cls-31" x1="1045.46" y1="485.28" x2="1044.94" y2="485.8"/>
    <circle id="gate_tripod_A_02_pivot-2" data-name="gate_tripod_A_02_pivot" class="cls-32" cx="1036.72" cy="489.1" r="1.48"/>
    <path id="gate_tripod_A_02_route_01-3" data-name="gate_tripod_A_02_route_01" class="cls-25" d="M624.32,847.67s5.59-1.79,5.59,9.64"/>
    <path id="gate_tripod_A_02_route_02-3" data-name="gate_tripod_A_02_route_02" class="cls-43" d="M624.32,866.95s5.59.99,5.59-9.64"/>
    <path id="gate_tripod_A_02_route_03-3" data-name="gate_tripod_A_02_route_03" class="cls-25" d="M624.32,866.95s-4.82-9.62,0-19.28"/>
    <line id="gate_tripod_A_02_rotor_03-3" data-name="gate_tripod_A_02_rotor_03" class="cls-47" x1="624.32" y1="847.67" x2="612.66" y2="857.31"/>
    <line id="gate_tripod_A_02_rotor_02-3" data-name="gate_tripod_A_02_rotor_02" class="cls-37" x1="629.91" y1="857.31" x2="612.66" y2="857.31"/>
    <line id="gate_tripod_A_02_rotor_01-3" data-name="gate_tripod_A_02_rotor_01" class="cls-47" x1="612.66" y1="857.31" x2="624.32" y2="866.95"/>
    <rect id="gate_tripod_A_02_static-13" data-name="gate_tripod_A_02_static" class="cls-29" x="607.21" y="844.86" width="10.89" height="24.9"/>
    <rect id="gate_tripod_A_02_static-14" data-name="gate_tripod_A_02_static" class="cls-48" x="607.95" y="845.6" width="9.41" height="23.42"/>
    <line id="gate_tripod_A_02_static-15" data-name="gate_tripod_A_02_static" class="cls-48" x1="618.1" y1="844.86" x2="617.36" y2="845.6"/>
    <line id="gate_tripod_A_02_static-16" data-name="gate_tripod_A_02_static" class="cls-48" x1="618.1" y1="869.76" x2="617.36" y2="869.02"/>
    <circle id="gate_tripod_A_02_pivot-3" data-name="gate_tripod_A_02_pivot" class="cls-43" cx="612.66" cy="857.31" r="2.12"/>
  </g>
  <g id="_图层_8_复制" data-name="图层 8_复制">
    <path id="gate_tripod_A_02_route_01-4" data-name="gate_tripod_A_02_route_01" class="cls-4" d="M1192.78,490.4s-1.25-3.92,6.76-3.92"/>
    <path id="gate_tripod_A_02_route_02-4" data-name="gate_tripod_A_02_route_02" class="cls-32" d="M1206.31,490.4s.69-3.92-6.76-3.92"/>
    <path id="gate_tripod_A_02_route_03-4" data-name="gate_tripod_A_02_route_03" class="cls-4" d="M1206.31,490.4s-6.75,3.38-13.53,0"/>
    <line id="gate_tripod_A_02_rotor_03-4" data-name="gate_tripod_A_02_rotor_03" class="cls-15" x1="1192.78" y1="490.4" x2="1199.54" y2="498.59"/>
    <line id="gate_tripod_A_02_rotor_02-4" data-name="gate_tripod_A_02_rotor_02" class="cls-46" x1="1199.54" y1="486.48" x2="1199.54" y2="498.59"/>
    <line id="gate_tripod_A_02_rotor_01-4" data-name="gate_tripod_A_02_rotor_01" class="cls-15" x1="1199.54" y1="498.59" x2="1206.31" y2="490.4"/>
    <rect id="gate_tripod_A_02_static-17" data-name="gate_tripod_A_02_static" class="cls-12" x="1190.81" y="494.77" width="17.47" height="7.64"/>
    <rect id="gate_tripod_A_02_static-18" data-name="gate_tripod_A_02_static" class="cls-31" x="1191.33" y="495.29" width="16.43" height="6.6"/>
    <line id="gate_tripod_A_02_static-19" data-name="gate_tripod_A_02_static" class="cls-31" x1="1190.81" y1="494.77" x2="1191.33" y2="495.29"/>
    <line id="gate_tripod_A_02_static-20" data-name="gate_tripod_A_02_static" class="cls-31" x1="1208.28" y1="494.77" x2="1207.76" y2="495.29"/>
    <line id="gate_tripod_A_02_static-21" data-name="gate_tripod_A_02_static" class="cls-31" x1="1208.28" y1="502.41" x2="1207.76" y2="501.89"/>
    <line id="gate_tripod_A_02_static-22" data-name="gate_tripod_A_02_static" class="cls-31" x1="1190.81" y1="502.41" x2="1191.33" y2="501.89"/>
    <circle id="gate_tripod_A_02_pivot-4" data-name="gate_tripod_A_02_pivot" class="cls-32" cx="1199.54" cy="498.59" r="1.48"/>
    <path id="gate_tripod_A_02_route_01-5" data-name="gate_tripod_A_02_route_01" class="cls-4" d="M1042.79,629.28s1.25,3.92-6.76,3.92"/>
    <path id="gate_tripod_A_02_route_02-5" data-name="gate_tripod_A_02_route_02" class="cls-32" d="M1029.26,629.28s-.69,3.92,6.76,3.92"/>
    <path id="gate_tripod_A_02_route_03-5" data-name="gate_tripod_A_02_route_03" class="cls-4" d="M1029.26,629.28s6.75-3.38,13.53,0"/>
    <line id="gate_tripod_A_02_rotor_03-5" data-name="gate_tripod_A_02_rotor_03" class="cls-15" x1="1042.79" y1="629.28" x2="1036.02" y2="621.1"/>
    <line id="gate_tripod_A_02_rotor_02-5" data-name="gate_tripod_A_02_rotor_02" class="cls-46" x1="1036.02" y1="633.2" x2="1036.02" y2="621.1"/>
    <line id="gate_tripod_A_02_rotor_01-5" data-name="gate_tripod_A_02_rotor_01" class="cls-15" x1="1036.02" y1="621.1" x2="1029.26" y2="629.28"/>
    <rect id="gate_tripod_A_02_static-23" data-name="gate_tripod_A_02_static" class="cls-12" x="1027.29" y="617.28" width="17.47" height="7.64"/>
    <rect id="gate_tripod_A_02_static-24" data-name="gate_tripod_A_02_static" class="cls-31" x="1027.81" y="617.8" width="16.43" height="6.6"/>
    <line id="gate_tripod_A_02_static-25" data-name="gate_tripod_A_02_static" class="cls-31" x1="1044.76" y1="624.91" x2="1044.24" y2="624.39"/>
    <line id="gate_tripod_A_02_static-26" data-name="gate_tripod_A_02_static" class="cls-31" x1="1027.29" y1="624.91" x2="1027.81" y2="624.39"/>
    <line id="gate_tripod_A_02_static-27" data-name="gate_tripod_A_02_static" class="cls-31" x1="1027.29" y1="617.28" x2="1027.81" y2="617.8"/>
    <line id="gate_tripod_A_02_static-28" data-name="gate_tripod_A_02_static" class="cls-31" x1="1044.76" y1="617.28" x2="1044.24" y2="617.8"/>
    <circle id="gate_tripod_A_02_pivot-5" data-name="gate_tripod_A_02_pivot" class="cls-32" cx="1036.02" cy="621.1" r="1.48"/>
  </g>
  <g id="gate_barrier_A_02_复制_2" data-name="gate_barrier_A_02_复制 2">
    <path id="gate_barrier_A_02_static-2" data-name="gate_barrier_A_02_static" class="cls-34" d="M1498.77,384.56v11.07c0,1.03-.83,1.86-1.86,1.86h-5.51c-1.03,0-1.86-.83-1.86-1.86v-11.07c0-1.03.83-1.86,1.86-1.86h5.51c1.03,0,1.86.83,1.86,1.86ZM1490.88,385.42v9.35c0,.57.46,1.03,1.03,1.03h4.49c.57,0,1.03-.46,1.03-1.03v-9.35c0-.57-.46-1.03-1.03-1.03h-4.49c-.57,0-1.03.46-1.03,1.03Z"/>
    <ellipse id="gate_barrier_A_02_pivot-2" data-name="gate_barrier_A_02_pivot" class="cls-36" cx="1494.15" cy="390.09" rx="1.68" ry="1.7"/>
    <path id="gate_barrier_A_02_leaf-2" data-name="gate_barrier_A_02_leaf" class="cls-17" d="M1495.84,389.73v.73c0,.42-.34.75-.75.75h-40.05c-.42,0-.75-.34-.75-.75v-.73c0-.42.34-.75.75-.75h40.05c.42,0,.75.34.75.75ZM1454.74,389.69v.81c0,.24.2.44.44.44h39.75c.24,0,.44-.2.44-.44v-.81c0-.24-.2-.44-.44-.44h-39.75c-.24,0-.44.2-.44.44ZM1484.33,390.94l3.49-1.69M1480.06,389.25l-3.49,1.69M1472.3,389.25l-3.49,1.69M1464.54,389.25l-3.49,1.69"/>
    <path id="gate_barrier_A_02_static-3" data-name="gate_barrier_A_02_static" class="cls-34" d="M1454.45,774.98v-11.07c0-1.03.83-1.86,1.86-1.86h5.51c1.03,0,1.86.83,1.86,1.86v11.07c0,1.03-.83,1.86-1.86,1.86h-5.51c-1.03,0-1.86-.83-1.86-1.86ZM1462.34,774.12v-9.35c0-.57-.46-1.03-1.03-1.03h-4.49c-.57,0-1.03.46-1.03,1.03v9.35c0,.57.46,1.03,1.03,1.03h4.49c.57,0,1.03-.46,1.03-1.03Z"/>
    <ellipse id="gate_barrier_A_02_pivot-3" data-name="gate_barrier_A_02_pivot" class="cls-36" cx="1459.07" cy="769.44" rx="1.68" ry="1.7"/>
    <path id="gate_barrier_A_02_leaf-3" data-name="gate_barrier_A_02_leaf" class="cls-17" d="M1457.38,769.81v-.73c0-.42.34-.75.75-.75h40.05c.42,0,.75.34.75.75v.73c0,.42-.34.75-.75.75h-40.05c-.42,0-.75-.34-.75-.75ZM1498.48,769.85v-.81c0-.24-.2-.44-.44-.44h-39.75c-.24,0-.44.2-.44.44v.81c0,.24.2.44.44.44h39.75c.24,0,.44-.2.44-.44ZM1468.89,768.6l-3.49,1.69M1473.16,770.29l3.49-1.69M1480.92,770.29l3.49-1.69M1488.68,770.29l3.49-1.69"/>
    <path id="gate_barrier_A_02_static-4" data-name="gate_barrier_A_02_static" class="cls-34" d="M1196.12,369.68v11.07c0,1.03-.83,1.86-1.86,1.86h-5.51c-1.03,0-1.86-.83-1.86-1.86v-11.07c0-1.03.83-1.86,1.86-1.86h5.51c1.03,0,1.86.83,1.86,1.86ZM1188.24,370.55v9.35c0,.57.46,1.03,1.03,1.03h4.49c.57,0,1.03-.46,1.03-1.03v-9.35c0-.57-.46-1.03-1.03-1.03h-4.49c-.57,0-1.03.46-1.03,1.03Z"/>
    <ellipse id="gate_barrier_A_02_pivot-4" data-name="gate_barrier_A_02_pivot" class="cls-36" cx="1191.51" cy="375.22" rx="1.68" ry="1.7"/>
    <path id="gate_barrier_A_02_leaf-4" data-name="gate_barrier_A_02_leaf" class="cls-21" d="M1193.19,374.86v.73c0,.42-.34.75-.75.75h-40.05c-.42,0-.75-.34-.75-.75v-.73c0-.42.34-.75.75-.75h40.05c.42,0,.75.34.75.75ZM1152.09,374.82v.81c0,.24.2.44.44.44h39.75c.24,0,.44-.2.44-.44v-.81c0-.24-.2-.44-.44-.44h-39.75c-.24,0-.44.2-.44.44ZM1181.69,376.07l3.49-1.69M1177.42,374.37l-3.49,1.69M1169.66,374.37l-3.49,1.69M1161.9,374.37l-3.49,1.69"/>
    <path id="gate_barrier_A_02_static-5" data-name="gate_barrier_A_02_static" class="cls-34" d="M1101.13,380.56v-11.07c0-1.03.83-1.86,1.86-1.86h5.51c1.03,0,1.86.83,1.86,1.86v11.07c0,1.03-.83,1.86-1.86,1.86h-5.51c-1.03,0-1.86-.83-1.86-1.86ZM1109.01,379.7v-9.35c0-.57-.46-1.03-1.03-1.03h-4.49c-.57,0-1.03.46-1.03,1.03v9.35c0,.57.46,1.03,1.03,1.03h4.49c.57,0,1.03-.46,1.03-1.03Z"/>
    <ellipse id="gate_barrier_A_02_pivot-5" data-name="gate_barrier_A_02_pivot" class="cls-36" cx="1105.74" cy="375.02" rx="1.68" ry="1.7"/>
    <path id="gate_barrier_A_02_leaf-5" data-name="gate_barrier_A_02_leaf" class="cls-21" d="M1104.06,375.39v-.73c0-.42.34-.75.75-.75h40.05c.42,0,.75.34.75.75v.73c0,.42-.34.75-.75.75h-40.05c-.42,0-.75-.34-.75-.75ZM1145.16,375.43v-.81c0-.24-.2-.44-.44-.44h-39.75c-.24,0-.44.2-.44.44v.81c0,.24.2.44.44.44h39.75c.24,0,.44-.2.44-.44ZM1115.56,374.18l-3.49,1.69M1119.83,375.87l3.49-1.69M1127.59,375.87l3.49-1.69M1135.35,375.87l3.49-1.69"/>
    <path id="gate_barrier_A_02_static-6" data-name="gate_barrier_A_02_static" class="cls-34" d="M783.62,776.56v-11.07c0-1.03.83-1.86,1.86-1.86h5.51c1.03,0,1.86.83,1.86,1.86v11.07c0,1.03-.83,1.86-1.86,1.86h-5.51c-1.03,0-1.86-.83-1.86-1.86ZM791.51,775.69v-9.35c0-.57-.46-1.03-1.03-1.03h-4.49c-.57,0-1.03.46-1.03,1.03v9.35c0,.57.46,1.03,1.03,1.03h4.49c.57,0,1.03-.46,1.03-1.03Z"/>
    <ellipse id="gate_barrier_A_02_pivot-6" data-name="gate_barrier_A_02_pivot" class="cls-36" cx="788.24" cy="771.02" rx="1.68" ry="1.7"/>
    <path id="gate_barrier_A_02_leaf-6" data-name="gate_barrier_A_02_leaf" class="cls-17" d="M786.56,771.38v-.73c0-.42.34-.75.75-.75h40.05c.42,0,.75.34.75.75v.73c0,.42-.34.75-.75.75h-40.05c-.42,0-.75-.34-.75-.75ZM827.65,771.42v-.81c0-.24-.2-.44-.44-.44h-39.75c-.24,0-.44.2-.44.44v.81c0,.24.2.44.44.44h39.75c.24,0,.44-.2.44-.44ZM798.06,770.18l-3.49,1.69M802.33,771.87l3.49-1.69M810.09,771.87l3.49-1.69M817.85,771.87l3.49-1.69"/>
    <path id="gate_barrier_A_02_static-7" data-name="gate_barrier_A_02_static" class="cls-10" d="M786.2,865.75v-15.6c0-1.45,1.18-2.62,2.62-2.62h7.76c1.45,0,2.62,1.18,2.62,2.62v15.6c0,1.45-1.18,2.62-2.62,2.62h-7.76c-1.45,0-2.62-1.18-2.62-2.62ZM797.31,864.54v-13.17c0-.8-.65-1.45-1.45-1.45h-6.32c-.8,0-1.45.65-1.45,1.45v13.17c0,.8.65,1.45,1.45,1.45h6.32c.8,0,1.45-.65,1.45-1.45Z"/>
    <ellipse id="gate_barrier_A_02_pivot-7" data-name="gate_barrier_A_02_pivot" class="cls-30" cx="792.7" cy="857.95" rx="2.37" ry="2.4"/>
    <path id="gate_barrier_A_02_leaf-7" data-name="gate_barrier_A_02_leaf" class="cls-35" d="M790.33,858.47v-1.02c0-.59.47-1.06,1.06-1.06h56.42c.59,0,1.06.47,1.06,1.06v1.02c0,.59-.47,1.06-1.06,1.06h-56.42c-.59,0-1.06-.47-1.06-1.06ZM848.23,858.52v-1.13c0-.34-.28-.62-.62-.62h-56c-.34,0-.62.28-.62.62v1.13c0,.34.28.62.62.62h56c.34,0,.62-.28.62-.62ZM806.54,856.76l-4.92,2.38M812.55,859.15l4.92-2.38M823.48,859.15l4.92-2.38M834.42,859.15l4.92-2.38"/>
    <path id="gate_barrier_A_02_static-8" data-name="gate_barrier_A_02_static" class="cls-10" d="M917.88,864.56v-15.6c0-1.45,1.18-2.62,2.62-2.62h7.76c1.45,0,2.62,1.18,2.62,2.62v15.6c0,1.45-1.18,2.62-2.62,2.62h-7.76c-1.45,0-2.62-1.18-2.62-2.62ZM928.99,863.35v-13.17c0-.8-.65-1.45-1.45-1.45h-6.32c-.8,0-1.45.65-1.45,1.45v13.17c0,.8.65,1.45,1.45,1.45h6.32c.8,0,1.45-.65,1.45-1.45Z"/>
    <ellipse id="gate_barrier_A_02_pivot-8" data-name="gate_barrier_A_02_pivot" class="cls-39" cx="924.38" cy="856.76" rx="2.37" ry="2.4"/>
    <path id="gate_barrier_A_02_leaf-8" data-name="gate_barrier_A_02_leaf" class="cls-49" d="M922.01,857.28v-1.02c0-.59.47-1.06,1.06-1.06h56.42c.59,0,1.06.47,1.06,1.06v1.02c0,.59-.47,1.06-1.06,1.06h-56.42c-.59,0-1.06-.47-1.06-1.06ZM979.91,857.33v-1.13c0-.34-.28-.62-.62-.62h-56c-.34,0-.62.28-.62.62v1.13c0,.34.28.62.62.62h56c.34,0,.62-.28.62-.62ZM938.22,855.57l-4.92,2.38M944.23,857.95l4.92-2.38M955.17,857.95l4.92-2.38M966.1,857.95l4.92-2.38"/>
    <line class="cls-42" x1="1112.29" y1="636.09" x2="1112.31" y2="726.96"/>
    <path id="gate_barrier_A_02_static-9" data-name="gate_barrier_A_02_static" class="cls-34" d="M426.26,772.6v-11.07c0-1.03.83-1.86,1.86-1.86h5.51c1.03,0,1.86.83,1.86,1.86v11.07c0,1.03-.83,1.86-1.86,1.86h-5.51c-1.03,0-1.86-.83-1.86-1.86ZM434.15,771.74v-9.35c0-.57-.46-1.03-1.03-1.03h-4.49c-.57,0-1.03.46-1.03,1.03v9.35c0,.57.46,1.03,1.03,1.03h4.49c.57,0,1.03-.46,1.03-1.03Z"/>
    <ellipse id="gate_barrier_A_02_pivot-9" data-name="gate_barrier_A_02_pivot" class="cls-36" cx="430.94" cy="767.07" rx="1.68" ry="1.7"/>
    <path id="gate_barrier_A_02_leaf-9" data-name="gate_barrier_A_02_leaf" class="cls-17" d="M429.2,767.43v-.73c0-.42.34-.75.75-.75h40.05c.42,0,.75.34.75.75v.73c0,.42-.34.75-.75.75h-40.05c-.42,0-.75-.34-.75-.75ZM470.29,767.47v-.81c0-.24-.2-.44-.44-.44h-39.75c-.24,0-.44.2-.44.44v.81c0,.24.2.44.44.44h39.75c.24,0,.44-.2.44-.44ZM440.7,766.22l-3.49,1.69M444.97,767.91l3.49-1.69M452.73,767.91l3.49-1.69M460.49,767.91l3.49-1.69"/>
    <path id="gate_barrier_A_02_static-10" data-name="gate_barrier_A_02_static" class="cls-34" d="M427.69,315v-11.07c0-1.03.83-1.86,1.86-1.86h5.51c1.03,0,1.86.83,1.86,1.86v11.07c0,1.03-.83,1.86-1.86,1.86h-5.51c-1.03,0-1.86-.83-1.86-1.86ZM435.58,314.14v-9.35c0-.57-.46-1.03-1.03-1.03h-4.49c-.57,0-1.03.46-1.03,1.03v9.35c0,.57.46,1.03,1.03,1.03h4.49c.57,0,1.03-.46,1.03-1.03Z"/>
    <ellipse id="gate_barrier_A_02_pivot-10" data-name="gate_barrier_A_02_pivot" class="cls-36" cx="432.31" cy="309.46" rx="1.68" ry="1.7"/>
    <path id="gate_barrier_A_02_leaf-10" data-name="gate_barrier_A_02_leaf" class="cls-17" d="M430.63,309.83v-.73c0-.42.34-.75.75-.75h40.05c.42,0,.75.34.75.75v.73c0,.42-.34.75-.75.75h-40.05c-.42,0-.75-.34-.75-.75ZM471.72,309.87v-.81c0-.24-.2-.44-.44-.44h-39.75c-.24,0-.44.2-.44.44v.81c0,.24.2.44.44.44h39.75c.24,0,.44-.2.44-.44ZM442.13,308.62l-3.49,1.69M446.4,310.31l3.49-1.69M454.16,310.31l3.49-1.69M461.92,310.31l3.49-1.69"/>
    <path class="cls-7" d="M1032.23,879l-535.4,1.19c-4.08,0-7.39-4.03-7.39-8.99v-32.02c0-4.97,3.31-8.99,7.39-8.99l535.4-1.19c4.08,0,7.39,4.03,7.39,8.99v32.02c0,4.97-3.31,8.99-7.39,8.99Z"/>
  </g>
  <g id="_图层_21" data-name="图层 21">
    <g>
      <polyline class="cls-16" points="1180.53 367.99 1105.32 176.22 1104.88 176.22"/>
      <polyline class="cls-16" points="1180.53 877.29 1180.53 367.99 1180.09 367.99"/>
      <polygon class="cls-16" points="1166.61 877.29 1167.06 877.29 1166.61 367.95 1166.61 877.29"/>
      <polyline class="cls-16" points="1091.41 176.22 1166.61 367.95 1167.06 367.95"/>
      <polyline class="cls-16" points="1133.6 368.81 1104.43 176.22 1103.99 176.22"/>
      <polyline class="cls-16" points="1133.6 877.29 1133.6 368.81 1133.15 368.81"/>
      <polygon class="cls-16" points="1119.68 877.29 1120.13 877.29 1119.68 368.77 1119.68 877.29"/>
      <polyline class="cls-16" points="1119.68 368.77 1120.13 368.77 1120.13 877.29"/>
      <polyline class="cls-16" points="1090.52 176.22 1119.68 368.77 1120.13 368.77"/>
    </g>
    <line class="cls-34" x1="831.37" y1="479.07" x2="831.39" y2="505.48"/>
  </g>
</svg>