<?xml version="1.0" encoding="UTF-8"?>
<svg xmlns="http://www.w3.org/2000/svg" viewBox="0 0 1366 768">
  <defs>
    <style>
      .cls-1, .cls-2, .cls-3, .cls-4, .cls-5, .cls-6, .cls-7, .cls-8, .cls-9, .cls-10, .cls-11, .cls-12, .cls-13, .cls-14, .cls-15, .cls-16, .cls-17, .cls-18, .cls-19, .cls-20, .cls-21, .cls-22, .cls-23, .cls-24, .cls-25, .cls-26, .cls-27, .cls-28, .cls-29, .cls-30, .cls-31, .cls-32, .cls-33, .cls-34, .cls-35, .cls-36, .cls-37, .cls-38 {
        stroke-miterlimit: 10;
      }

      .cls-1, .cls-2, .cls-3, .cls-4, .cls-5, .cls-6, .cls-7, .cls-8, .cls-10, .cls-11, .cls-12, .cls-13, .cls-14, .cls-15, .cls-16, .cls-17, .cls-18, .cls-19, .cls-20, .cls-21, .cls-22, .cls-23, .cls-24, .cls-25, .cls-26, .cls-27, .cls-28, .cls-29, .cls-30, .cls-31, .cls-32, .cls-33, .cls-34, .cls-35, .cls-36, .cls-37, .cls-38 {
        fill: none;
      }

      .cls-1, .cls-7, .cls-15, .cls-19, .cls-33, .cls-35 {
        stroke: #5df;
      }

      .cls-1, .cls-14, .cls-36 {
        stroke-width: .11px;
      }

      .cls-2 {
        stroke-width: .2px;
      }

      .cls-2, .cls-12, .cls-16, .cls-20, .cls-28, .cls-36 {
        stroke: #f2f2f2;
      }

      .cls-3 {
        stroke-width: .5px;
      }

      .cls-3, .cls-5, .cls-6, .cls-10, .cls-11, .cls-18, .cls-21, .cls-30 {
        stroke: #5df;
      }

      .cls-4 {
        stroke-width: .13px;
      }

      .cls-4, .cls-22 {
        stroke: #fffcfc;
      }

      .cls-5 {
        stroke-dasharray: 5.02 5.02;
      }

      .cls-5, .cls-10, .cls-18, .cls-21 {
        stroke-width: .75px;
      }

      .cls-6, .cls-23, .cls-37 {
        stroke-width: 1.02px;
      }

      .cls-7 {
        stroke-width: .32px;
      }

      .cls-8 {
        stroke-width: 3.02px;
      }

      .cls-8, .cls-13, .cls-17, .cls-34 {
        stroke: #c7f7ff;
      }

      .cls-9 {
        fill: #001123;
        stroke-width: .42px;
      }

      .cls-9, .cls-23, .cls-24, .cls-26, .cls-27, .cls-29, .cls-32 {
        stroke: #c7f7ff;
      }

      .cls-10 {
        stroke-dasharray: 5.01 5.01;
      }

      .cls-11, .cls-28, .cls-32, .cls-38 {
        stroke-width: .41px;
      }

      .cls-39 {
        font-size: 11px;
      }

      .cls-39, .cls-40, .cls-41, .cls-42 {
        font-family: SimHei, SimHei;
      }

      .cls-39, .cls-41 {
        fill: #bfbfbf;
      }

      .cls-12 {
        stroke-width: .09px;
      }

      .cls-13 {
        stroke-width: .81px;
      }

      .cls-14, .cls-31 {
        stroke: #fff;
      }

      .cls-15 {
        stroke-width: .28px;
      }

      .cls-16, .cls-31, .cls-35 {
        stroke-width: .19px;
      }

      .cls-17, .cls-27 {
        stroke-width: .64px;
      }

      .cls-19 {
        stroke-width: .56px;
      }

      .cls-40 {
        font-size: 13.77px;
      }

      .cls-40, .cls-42 {
        fill: gray;
      }

      .cls-20, .cls-25 {
        stroke-width: .14px;
      }

      .cls-21 {
        stroke-dasharray: 4.99 4.99;
      }

      .cls-22 {
        stroke-width: .4px;
      }

      .cls-41 {
        font-size: 10.12px;
      }

      .cls-24, .cls-34 {
        stroke-width: 1.11px;
      }

      .cls-25, .cls-37, .cls-38 {
        stroke: #f7ff51;
      }

      .cls-26, .cls-33 {
        stroke-width: 1.45px;
      }

      .cls-29 {
        stroke-width: .55px;
      }

      .cls-30 {
        stroke-width: .5px;
      }

      .cls-42 {
        font-size: 9px;
      }
    </style>
  </defs>
  <g id="_背景" data-name="背景">
    <rect class="cls-9" width="1366" height="768"/>
  </g>
  <g id="static">
    <g id="wall">
      <polyline id="wall-2" data-name="wall" class="cls-30" points="339.06 276.88 375.49 276.88 375.49 340.63 324.57 340.63 324.57 276.88 327.42 276.88"/>
      <rect id="wall-3" data-name="wall" class="cls-30" x="387.81" y="251.99" width="50.29" height="88.63"/>
      <polyline id="wall-4" data-name="wall" class="cls-30" points="475.65 276.88 542.06 276.88 542.06 340.63 458.79 340.63 458.79 276.88 464.08 276.88"/>
      <rect id="wall-5" data-name="wall" class="cls-30" x="324.57" y="363.23" width="113.52" height="71.37"/>
      <polyline id="wall-6" data-name="wall" class="cls-30" points="526.21 434.6 458.79 434.6 458.79 363.23 542.06 363.23 542.06 434.6 537.86 434.6"/>
      <rect id="wall-7" data-name="wall" class="cls-30" x="324.57" y="452.12" width="113.52" height="63.75"/>
      <polyline id="wall-8" data-name="wall" class="cls-30" points="492.25 515.87 458.79 515.87 458.79 452.12 542.06 452.12 542.06 515.87 503.89 515.87"/>
      <polyline id="wall-9" data-name="wall" class="cls-30" points="324.57 276.88 324.57 220.12 319.08 220.12"/>
      <polyline id="wall-10" data-name="wall" class="cls-30" points="285.92 220.12 279.74 220.12 279.74 545.45 285.07 545.45"/>
      <polyline id="wall-11" data-name="wall" class="cls-30" points="324.57 515.87 324.57 545.45 318.23 545.45"/>
      <polygon id="wall-12" data-name="wall" class="cls-30" points="425.53 304.46 408.76 304.46 400.37 318.98 408.76 333.5 425.53 333.5 433.91 318.98 425.53 304.46"/>
      <polyline id="wall-13" data-name="wall" class="cls-30" points="555.71 515.87 559.31 515.87 559.31 545.45 562.72 545.45"/>
      <line id="wall-14" data-name="wall" class="cls-30" x1="542.06" y1="515.87" x2="544.06" y2="515.87"/>
      <polyline id="wall-15" data-name="wall" class="cls-30" points="595.88 545.45 599.02 545.45 599.02 515.87"/>
      <polyline id="wall-16" data-name="wall" class="cls-30" points="687.27 452.12 706.29 452.12 706.29 515.87 599.02 515.87 599.02 452.12 619.63 452.12"/>
      <line id="wall-17" data-name="wall" class="cls-30" x1="631.28" y1="452.12" x2="675.63" y2="452.12"/>
      <polyline id="wall-18" data-name="wall" class="cls-30" points="612.98 434.6 599.02 434.6 599.02 363.23 620.83 363.23"/>
      <line id="wall-19" data-name="wall" class="cls-30" x1="662.33" y1="434.6" x2="624.63" y2="434.6"/>
      <polyline id="wall-20" data-name="wall" class="cls-30" points="698.38 363.23 706.29 363.23 706.29 434.6 673.98 434.6"/>
      <line id="wall-21" data-name="wall" class="cls-30" x1="632.48" y1="363.23" x2="686.73" y2="363.23"/>
      <rect id="wall-22" data-name="wall" class="cls-30" x="745.15" y="363.23" width="54.48" height="71.37"/>
      <rect id="wall-23" data-name="wall" class="cls-30" x="745.15" y="452.12" width="54.48" height="63.75"/>
      <line id="wall-24" data-name="wall" class="cls-30" x1="660.8" y1="340.63" x2="646.39" y2="340.63"/>
      <polyline id="wall-25" data-name="wall" class="cls-30" points="634.74 340.63 599.02 340.63 599.02 276.88 799.63 276.88 799.63 340.63 672.45 340.63"/>
      <polyline id="wall-26" data-name="wall" class="cls-30" points="1041.37 296.69 1041.37 340.63 870.26 340.63 870.26 276.88 1041.37 276.88 1041.37 284.25"/>
      <line id="wall-27" data-name="wall" class="cls-30" x1="934.02" y1="434.6" x2="910.99" y2="434.6"/>
      <line id="wall-28" data-name="wall" class="cls-30" x1="966.7" y1="434.6" x2="945.67" y2="434.6"/>
      <line id="wall-29" data-name="wall" class="cls-30" x1="1001.24" y1="434.6" x2="978.35" y2="434.6"/>
      <polyline id="wall-30" data-name="wall" class="cls-30" points="998.12 363.23 1041.37 363.23 1041.37 434.6 1012.89 434.6"/>
      <line id="wall-31" data-name="wall" class="cls-30" x1="932.87" y1="363.23" x2="986.48" y2="363.23"/>
      <line id="wall-32" data-name="wall" class="cls-30" x1="906.81" y1="363.23" x2="940.2" y2="363.23"/>
      <polyline id="wall-33" data-name="wall" class="cls-30" points="899.34 434.6 870.26 434.6 870.26 363.23 895.16 363.23"/>
      <polyline id="wall-34" data-name="wall" class="cls-30" points="1023.98 452.12 1041.37 452.12 1041.37 515.87 870.26 515.87 870.26 452.12 888.9 452.12"/>
      <line id="wall-35" data-name="wall" class="cls-30" x1="993.3" y1="452.12" x2="1012.33" y2="452.12"/>
      <line id="wall-36" data-name="wall" class="cls-30" x1="938.89" y1="452.12" x2="981.65" y2="452.12"/>
      <line id="wall-37" data-name="wall" class="cls-30" x1="900.55" y1="452.12" x2="927.24" y2="452.12"/>
      <polyline id="wall-38" data-name="wall" class="cls-30" points="1082.33 545.45 1088.61 545.45 1088.61 276.88 1082.33 276.88"/>
      <polyline id="wall-39" data-name="wall" class="cls-30" points="1041.37 515.87 1041.37 545.45 1049.16 545.45"/>
      <line id="wall-40" data-name="wall" class="cls-30" x1="1041.37" y1="276.88" x2="1048.98" y2="276.88"/>
      <polyline id="wall-41" data-name="wall" class="cls-30" points="706.29 515.87 706.29 545.45 709.14 545.45"/>
      <polyline id="wall-42" data-name="wall" class="cls-30" points="745.15 515.87 745.15 545.45 742.3 545.45"/>
      <line id="wall-43" data-name="wall" class="cls-30" x1="599.02" y1="434.6" x2="599.02" y2="436.9"/>
      <line id="wall-44" data-name="wall" class="cls-30" x1="599.02" y1="452.12" x2="599.02" y2="449.34"/>
      <line id="wall-45" data-name="wall" class="cls-30" x1="1041.37" y1="340.63" x2="1041.37" y2="345.71"/>
      <line id="wall-46" data-name="wall" class="cls-30" x1="1041.37" y1="363.23" x2="1041.37" y2="358.15"/>
      <line id="wall-47" data-name="wall" class="cls-30" x1="1041.37" y1="434.6" x2="1041.37" y2="437.13"/>
      <line id="wall-48" data-name="wall" class="cls-30" x1="1041.37" y1="452.12" x2="1041.37" y2="449.58"/>
      <line id="wall-49" data-name="wall" class="cls-30" x1="870.26" y1="363.23" x2="870.26" y2="358.5"/>
      <line id="wall-50" data-name="wall" class="cls-30" x1="870.26" y1="340.63" x2="870.26" y2="345.36"/>
      <line id="wall-51" data-name="wall" class="cls-30" x1="870.26" y1="452.12" x2="870.26" y2="450.36"/>
      <line id="wall-52" data-name="wall" class="cls-30" x1="870.26" y1="434.6" x2="870.26" y2="437.21"/>
      <line id="wall-53" data-name="wall" class="cls-30" x1="745.15" y1="434.6" x2="745.15" y2="436.56"/>
      <line id="wall-54" data-name="wall" class="cls-30" x1="745.15" y1="452.12" x2="745.15" y2="449.71"/>
      <line id="wall-55" data-name="wall" class="cls-30" x1="745.15" y1="345.83" x2="745.15" y2="340.63"/>
      <line id="wall-56" data-name="wall" class="cls-30" x1="745.15" y1="363.23" x2="745.15" y2="358.97"/>
      <line id="wall-57" data-name="wall" class="cls-30" x1="438.09" y1="515.87" x2="440.97" y2="515.87"/>
      <line id="wall-58" data-name="wall" class="cls-30" x1="452.62" y1="515.87" x2="458.79" y2="515.87"/>
      <line id="wall-59" data-name="wall" class="cls-30" x1="438.09" y1="434.6" x2="441.79" y2="434.6"/>
      <line id="wall-60" data-name="wall" class="cls-30" x1="458.79" y1="434.6" x2="453.44" y2="434.6"/>
      <line id="wall-61" data-name="wall" class="cls-30" x1="706.29" y1="452.23" x2="706.29" y2="449.74"/>
      <line id="wall-62" data-name="wall" class="cls-30" x1="706.29" y1="434.6" x2="706.29" y2="438.09"/>
      <line id="wall-63" data-name="wall" class="cls-30" x1="706.29" y1="363.23" x2="706.29" y2="358.26"/>
      <line id="wall-64" data-name="wall" class="cls-30" x1="706.29" y1="340.63" x2="706.29" y2="346.61"/>
    </g>
    <g id="_图例" data-name="图例">
      <text class="cls-41" transform="translate(623.19 619.05)"><tspan x="0" y="0">汽车道闸</tspan></text>
      <text class="cls-41" transform="translate(501.88 618.04)"><tspan x="0" y="0">人脸门禁</tspan></text>
      <text class="cls-41" transform="translate(402.14 617.91)"><tspan x="0" y="0">火车道管控门</tspan></text>
      <text class="cls-41" transform="translate(316.14 617.85)"><tspan x="0" y="0">联锁管控门</tspan></text>
      <text class="cls-41" transform="translate(759.13 617.6)"><tspan x="0" y="0">火车道闸</tspan></text>
      <circle id="gate_person_A_02_pivot" class="cls-22" cx="309.72" cy="614.56" r="4.91"/>
      <line id="gate_person_A_02_leaf" class="cls-8" x1="272.79" y1="614.56" x2="309.72" y2="614.56"/>
      <path id="gate_fullheight_A_01_leaf" class="cls-26" d="M485.51,615.21v-12.67M485.44,615.22h-12.65M485.51,615.21v12.62M485.5,615.22h12.59"/>
      <path id="gate_fullheight_A_01_static" class="cls-33" d="M471.59,615.2v-13.4h27.85v13.39M471.51,627.3v1.41h27.85v-1.41"/>
      <circle id="gate_fullheight_A_01_pivot" class="cls-2" cx="485.44" cy="615.22" r="12.65"/>
      <path id="gate_tripod_A_02_route_01" class="cls-16" d="M393.62,604.91s5.59-1.79,5.59,9.64"/>
      <path id="gate_tripod_A_02_route_02" class="cls-31" d="M393.62,624.2s5.59.99,5.59-9.64"/>
      <path id="gate_tripod_A_02_route_03" class="cls-16" d="M393.62,624.2s-4.82-9.62,0-19.28"/>
      <line id="gate_tripod_A_02_rotor_03" class="cls-34" x1="393.62" y1="604.91" x2="381.96" y2="614.56"/>
      <line id="gate_tripod_A_02_rotor_02" class="cls-24" x1="399.21" y1="614.56" x2="381.96" y2="614.56"/>
      <line id="gate_tripod_A_02_rotor_01" class="cls-34" x1="381.96" y1="614.56" x2="393.62" y2="624.2"/>
      <rect id="gate_tripod_A_02_static" class="cls-19" x="376.51" y="602.1" width="10.89" height="24.9"/>
      <rect id="gate_tripod_A_02_static-2" data-name="gate_tripod_A_02_static" class="cls-35" x="377.25" y="602.84" width="9.41" height="23.42"/>
      <line id="gate_tripod_A_02_static-3" data-name="gate_tripod_A_02_static" class="cls-35" x1="387.4" y1="602.1" x2="386.66" y2="602.84"/>
      <line id="gate_tripod_A_02_static-4" data-name="gate_tripod_A_02_static" class="cls-35" x1="387.4" y1="627.01" x2="386.66" y2="626.27"/>
      <circle id="gate_tripod_A_02_pivot" class="cls-31" cx="381.96" cy="614.56" r="2.12"/>
      <path id="gate_barrier_A_02_static" class="cls-6" d="M555.5,623v-15.6c0-1.45,1.18-2.62,2.62-2.62h7.76c1.45,0,2.62,1.18,2.62,2.62v15.6c0,1.45-1.18,2.62-2.62,2.62h-7.76c-1.45,0-2.62-1.18-2.62-2.62ZM566.61,621.78v-13.17c0-.8-.65-1.45-1.45-1.45h-6.32c-.8,0-1.45.65-1.45,1.45v13.17c0,.8.65,1.45,1.45,1.45h6.32c.8,0,1.45-.65,1.45-1.45Z"/>
      <ellipse id="gate_barrier_A_02_pivot" class="cls-20" cx="562" cy="615.2" rx="2.37" ry="2.4"/>
      <path id="gate_barrier_A_02_leaf" class="cls-23" d="M559.63,615.71v-1.02c0-.59.47-1.06,1.06-1.06h56.42c.59,0,1.06.47,1.06,1.06v1.02c0,.59-.47,1.06-1.06,1.06h-56.42c-.59,0-1.06-.47-1.06-1.06ZM617.53,615.77v-1.13c0-.34-.28-.62-.62-.62h-56c-.34,0-.62.28-.62.62v1.13c0,.34.28.62.62.62h56c.34,0,.62-.28.62-.62ZM575.84,614.01l-4.92,2.38M581.85,616.39l4.92-2.38M592.78,616.39l4.92-2.38M603.72,616.39l4.92-2.38"/>
      <path id="gate_barrier_A_02_static-2" data-name="gate_barrier_A_02_static" class="cls-6" d="M687.18,621.81v-15.6c0-1.45,1.18-2.62,2.62-2.62h7.76c1.45,0,2.62,1.18,2.62,2.62v15.6c0,1.45-1.18,2.62-2.62,2.62h-7.76c-1.45,0-2.62-1.18-2.62-2.62ZM698.29,620.59v-13.17c0-.8-.65-1.45-1.45-1.45h-6.32c-.8,0-1.45.65-1.45,1.45v13.17c0,.8.65,1.45,1.45,1.45h6.32c.8,0,1.45-.65,1.45-1.45Z"/>
      <ellipse id="gate_barrier_A_02_pivot-2" data-name="gate_barrier_A_02_pivot" class="cls-25" cx="693.68" cy="614.01" rx="2.37" ry="2.4"/>
      <path id="gate_barrier_A_02_leaf-2" data-name="gate_barrier_A_02_leaf" class="cls-37" d="M691.31,614.52v-1.02c0-.59.47-1.06,1.06-1.06h56.42c.59,0,1.06.47,1.06,1.06v1.02c0,.59-.47,1.06-1.06,1.06h-56.42c-.59,0-1.06-.47-1.06-1.06ZM749.21,614.58v-1.13c0-.34-.28-.62-.62-.62h-56c-.34,0-.62.28-.62.62v1.13c0,.34.28.62.62.62h56c.34,0,.62-.28.62-.62ZM707.52,612.82l-4.92,2.38M713.53,615.2l4.92-2.38M724.47,615.2l4.92-2.38M735.4,615.2l4.92-2.38"/>
      <path class="cls-3" d="M801.53,636.25l-535.4,1.19c-4.08,0-7.39-4.03-7.39-8.99v-32.02c0-4.97,3.31-8.99,7.39-8.99l535.4-1.19c4.08,0,7.39,4.03,7.39,8.99v32.02c0,4.97-3.31,8.99-7.39,8.99Z"/>
    </g>
    <g id="track">
      <g id="track-2" data-name="track">
        <g>
          <line class="cls-18" x1="300.84" y1="227.98" x2="300.84" y2="230.48"/>
          <line class="cls-21" x1="300.84" y1="235.47" x2="300.84" y2="532.13"/>
          <line class="cls-18" x1="300.84" y1="534.63" x2="300.84" y2="537.13"/>
        </g>
      </g>
      <g id="track-3" data-name="track">
        <g>
          <line class="cls-18" x1="579.69" y1="276.88" x2="579.69" y2="279.38"/>
          <line class="cls-5" x1="579.69" y1="284.4" x2="579.69" y2="532.69"/>
          <line class="cls-18" x1="579.69" y1="535.2" x2="579.69" y2="537.7"/>
        </g>
      </g>
      <g id="track-4" data-name="track">
        <g>
          <line class="cls-18" x1="1065.75" y1="285.83" x2="1065.75" y2="288.33"/>
          <line class="cls-10" x1="1065.75" y1="293.34" x2="1065.75" y2="531.49"/>
          <line class="cls-18" x1="1065.75" y1="533.99" x2="1065.75" y2="536.49"/>
        </g>
      </g>
    </g>
    <g id="rail">
      <polyline id="rail-2" data-name="rail" class="cls-18" points="823.12 565.38 823.12 260.24 793.91 126.53 849.02 260.24 849.02 565.38"/>
      <polyline id="rail-3" data-name="rail" class="cls-18" points="839.5 565.38 839.5 260.24 784.39 126.53 813.59 260.24 813.59 565.38"/>
    </g>
  </g>
  <g id="text">
    <g id="_区域名" data-name="区域名">
      <text class="cls-39" transform="translate(332.9 313.36) scale(.96 1)"><tspan x="0" y="0">A区产管</tspan></text>
      <text class="cls-39" transform="translate(664.97 313.36) scale(.96 1)"><tspan x="0" y="0">F区热处理车间</tspan></text>
      <text class="cls-39" transform="translate(936.59 314.36) scale(.96 1)"><tspan x="0" y="0">L区产管</tspan></text>
      <text class="cls-39" transform="translate(936.59 404.07) scale(.96 1)"><tspan x="0" y="0">K区产管</tspan></text>
      <text class="cls-39" transform="translate(936.59 487.8) scale(.96 1)"><tspan x="0" y="0">J区产管</tspan></text>
      <text class="cls-39" transform="translate(634.16 404.07) scale(.96 1)"><tspan x="0" y="0">E区产管</tspan></text>
      <text class="cls-39" transform="translate(764.46 404.07) scale(.96 1)"><tspan x="0" y="0">E区</tspan></text>
      <text class="cls-39" transform="translate(634.16 487.8) scale(.96 1)"><tspan x="0" y="0">D区产管</tspan></text>
      <text class="cls-39" transform="translate(764.46 487.8) scale(.96 1)"><tspan x="0" y="0">D区</tspan></text>
      <text class="cls-39" transform="translate(481.93 403.36) scale(.96 1)"><tspan x="0" y="0">E区精整</tspan></text>
      <text class="cls-39" transform="translate(483.91 485.87) scale(.96 1)"><tspan x="0" y="0">D区精整</tspan></text>
      <text class="cls-39" transform="translate(362.83 402.4) scale(.96 1)"><tspan x="0" y="0">B区精整</tspan></text>
      <text class="cls-39" transform="translate(359.66 487.87) scale(.96 1)"><tspan x="0" y="0">D区精整</tspan></text>
      <text class="cls-39" transform="translate(398.15 291.68) scale(.96 1)"><tspan x="0" y="0">六号台</tspan></text>
      <text class="cls-39" transform="translate(481.93 313.36) scale(.96 1)"><tspan x="0" y="0">F区半货</tspan></text>
    </g>
    <g id="_汽车道闸门名" data-name="汽车道闸门名">
      <text class="cls-40" transform="translate(280.19 204.61)"><tspan x="0" y="0">12号门</tspan></text>
      <text class="cls-40" transform="translate(280.19 572.69)"><tspan x="0" y="0">11号门</tspan></text>
      <text class="cls-40" transform="translate(559.83 572.69)"><tspan x="0" y="0">10号门</tspan></text>
      <text class="cls-40" transform="translate(709.37 572.69)"><tspan x="0" y="0">9号门</tspan></text>
      <text class="cls-40" transform="translate(1052.56 572.69)"><tspan x="0" y="0">8号门</tspan></text>
      <text class="cls-40" transform="translate(1048.39 260.35)"><tspan x="0" y="0">7号门</tspan></text>
      <text class="cls-40" transform="translate(758.01 248.95)"><tspan x="0" y="0">6号门</tspan></text>
    </g>
    <g id="_小门名" data-name="小门名">
      <text class="cls-42" transform="translate(326.99 289.53)"><tspan x="0" y="0">A01</tspan></text>
      <text class="cls-42" transform="translate(463.66 289.53)"><tspan x="0" y="0">F03</tspan></text>
      <text class="cls-42" transform="translate(441.78 426.84)"><tspan x="0" y="0">E08</tspan></text>
      <text class="cls-42" transform="translate(441.51 509.97)"><tspan x="0" y="0">D07</tspan></text>
      <text class="cls-42" transform="translate(491.86 509.97)"><tspan x="0" y="0">D06</tspan></text>
      <text class="cls-42" transform="translate(545.33 509.97)"><tspan x="0" y="0">D05</tspan></text>
      <text class="cls-42" transform="translate(634.74 333.5)"><tspan x="0" y="0">F02</tspan></text>
      <text class="cls-42" transform="translate(613.71 428.25)"><tspan x="0" y="0">E06</tspan></text>
      <text class="cls-42" transform="translate(606.67 446.67)"><tspan x="0" y="0">X01</tspan></text>
      <text class="cls-42" transform="translate(686.38 446.57)"><tspan x="0" y="0">D03</tspan></text>
      <text class="cls-42" transform="translate(755.18 446.77)"><tspan x="0" y="0">S03</tspan></text>
      <text class="cls-42" transform="translate(619.25 462.73)"><tspan x="0" y="0">D01</tspan></text>
      <text class="cls-42" transform="translate(619.63 374.22)"><tspan x="0" y="0">E01</tspan></text>
      <text class="cls-42" transform="translate(660.38 333.51)"><tspan x="0" y="0">F01</tspan></text>
      <text class="cls-42" transform="translate(662.51 428.05)"><tspan x="0" y="0">E05</tspan></text>
      <text class="cls-42" transform="translate(675.24 462.73)"><tspan x="0" y="0">D02</tspan></text>
      <text class="cls-42" transform="translate(767.13 462.53)"><tspan x="0" y="0">D04</tspan></text>
      <text class="cls-42" transform="translate(767.13 430.31)"><tspan x="0" y="0">E04</tspan></text>
      <text class="cls-42" transform="translate(754.86 355.74)"><tspan x="0" y="0">S01</tspan></text>
      <text class="cls-42" transform="translate(878.74 355.54)"><tspan x="0" y="0">S02</tspan></text>
      <text class="cls-42" transform="translate(894.69 378.07)"><tspan x="0" y="0">K01</tspan></text>
      <text class="cls-42" transform="translate(938.62 378.07)"><tspan x="0" y="0">K02</tspan></text>
      <text class="cls-42" transform="translate(1018.33 355.44)"><tspan x="0" y="0">X03</tspan></text>
      <text class="cls-42" transform="translate(1019.11 445.48)"><tspan x="0" y="0">X04</tspan></text>
      <text class="cls-42" transform="translate(1001.72 426.75)"><tspan x="0" y="0">K04</tspan></text>
      <text class="cls-42" transform="translate(1010.16 467.99)"><tspan x="0" y="0">J04</tspan></text>
      <text class="cls-42" transform="translate(979.54 467.99)"><tspan x="0" y="0">J03</tspan></text>
      <text class="cls-42" transform="translate(925.92 467.99)"><tspan x="0" y="0">J02</tspan></text>
      <text class="cls-42" transform="translate(888.49 467.98)"><tspan x="0" y="0">J01</tspan></text>
      <text class="cls-42" transform="translate(879.13 446.77)"><tspan x="0" y="0">S04</tspan></text>
      <text class="cls-42" transform="translate(966.84 426.75)"><tspan x="0" y="0">K05</tspan></text>
      <text class="cls-42" transform="translate(932.87 426.75)"><tspan x="0" y="0">K06</tspan></text>
      <text class="cls-42" transform="translate(900.16 426.75)"><tspan x="0" y="0">K07</tspan></text>
      <text class="cls-42" transform="translate(1018.72 293.47)"><tspan x="0" y="0">X02</tspan></text>
      <text class="cls-42" transform="translate(984.44 378.07)"><tspan x="0" y="0">K03</tspan></text>
      <text class="cls-42" transform="translate(688.21 355.44)"><tspan x="0" y="0">E03</tspan></text>
      <text class="cls-42" transform="translate(685.89 374.32)"><tspan x="0" y="0">E02</tspan></text>
      <text class="cls-42" transform="translate(525.72 426.75)"><tspan x="0" y="0">E07</tspan></text>
    </g>
  </g>
  <g id="tripod">
    <g id="tripod_S01">
      <path id="route_01" class="cls-36" d="M750.73,355.73s1.03,3.24-5.58,3.24"/>
      <path id="route_02" class="cls-14" d="M739.57,355.73s-.57,3.24,5.58,3.24"/>
      <path id="route_03" class="cls-36" d="M739.57,355.73s5.57-2.79,11.17,0"/>
      <line id="rotor_03" class="cls-17" x1="750.73" y1="355.73" x2="745.15" y2="348.98"/>
      <line id="rotor_02" class="cls-27" x1="745.15" y1="358.97" x2="745.15" y2="348.98"/>
      <line id="rotor_01" class="cls-17" x1="745.15" y1="348.98" x2="739.57" y2="355.73"/>
      <rect id="static-2" data-name="static" class="cls-7" x="737.94" y="345.83" width="14.42" height="6.3"/>
      <rect id="static-3" data-name="static" class="cls-1" x="738.37" y="346.26" width="13.56" height="5.45"/>
      <line id="static-4" data-name="static" class="cls-1" x1="752.36" y1="352.13" x2="751.93" y2="351.7"/>
      <line id="static-5" data-name="static" class="cls-1" x1="737.94" y1="352.13" x2="738.37" y2="351.7"/>
      <line id="static-6" data-name="static" class="cls-1" x1="737.94" y1="345.83" x2="738.37" y2="346.26"/>
      <line id="static-7" data-name="static" class="cls-1" x1="752.36" y1="345.83" x2="751.93" y2="346.26"/>
      <circle id="pivot" class="cls-14" cx="745.15" cy="348.98" r="1.23"/>
    </g>
    <g id="tripod_S03">
      <path id="route_01-2" data-name="route_01" class="cls-36" d="M750.73,446.47s1.03,3.24-5.58,3.24"/>
      <path id="route_02-2" data-name="route_02" class="cls-14" d="M739.57,446.47s-.57,3.24,5.58,3.24"/>
      <path id="route_03-2" data-name="route_03" class="cls-36" d="M739.57,446.47s5.57-2.79,11.17,0"/>
      <line id="rotor_03-2" data-name="rotor_03" class="cls-17" x1="750.73" y1="446.47" x2="745.15" y2="439.72"/>
      <line id="rotor_02-2" data-name="rotor_02" class="cls-27" x1="745.15" y1="449.71" x2="745.15" y2="439.72"/>
      <line id="rotor_01-2" data-name="rotor_01" class="cls-17" x1="745.15" y1="439.72" x2="739.57" y2="446.47"/>
      <rect id="static-8" data-name="static" class="cls-7" x="737.94" y="436.56" width="14.42" height="6.3"/>
      <rect id="static-9" data-name="static" class="cls-1" x="738.37" y="436.99" width="13.56" height="5.45"/>
      <line id="static-10" data-name="static" class="cls-1" x1="752.36" y1="442.87" x2="751.93" y2="442.44"/>
      <line id="static-11" data-name="static" class="cls-1" x1="737.94" y1="442.87" x2="738.37" y2="442.44"/>
      <line id="static-12" data-name="static" class="cls-1" x1="737.94" y1="436.56" x2="738.37" y2="436.99"/>
      <line id="static-13" data-name="static" class="cls-1" x1="752.36" y1="436.56" x2="751.93" y2="436.99"/>
      <circle id="pivot-2" data-name="pivot" class="cls-14" cx="745.15" cy="439.72" r="1.23"/>
    </g>
    <g id="tripod_S02">
      <path id="route_01-3" data-name="route_01" class="cls-36" d="M864.68,348.6s-1.03-3.24,5.58-3.24"/>
      <path id="route_02-3" data-name="route_02" class="cls-14" d="M875.84,348.6s.57-3.24-5.58-3.24"/>
      <path id="route_03-3" data-name="route_03" class="cls-36" d="M875.84,348.6s-5.57,2.79-11.17,0"/>
      <line id="rotor_03-3" data-name="rotor_03" class="cls-17" x1="864.68" y1="348.6" x2="870.26" y2="355.35"/>
      <line id="rotor_02-3" data-name="rotor_02" class="cls-27" x1="870.26" y1="345.36" x2="870.26" y2="355.35"/>
      <line id="rotor_01-3" data-name="rotor_01" class="cls-17" x1="870.26" y1="355.35" x2="875.84" y2="348.6"/>
      <rect id="static-14" data-name="static" class="cls-7" x="863.05" y="352.2" width="14.42" height="6.3"/>
      <rect id="static-15" data-name="static" class="cls-1" x="863.48" y="352.63" width="13.56" height="5.45"/>
      <line id="static-16" data-name="static" class="cls-1" x1="863.05" y1="352.2" x2="863.48" y2="352.63"/>
      <line id="static-17" data-name="static" class="cls-1" x1="877.47" y1="352.2" x2="877.04" y2="352.63"/>
      <line id="static-18" data-name="static" class="cls-1" x1="877.47" y1="358.5" x2="877.04" y2="358.07"/>
      <line id="static-19" data-name="static" class="cls-1" x1="863.05" y1="358.5" x2="863.48" y2="358.07"/>
      <circle id="pivot-3" data-name="pivot" class="cls-14" cx="870.26" cy="355.35" r="1.23"/>
    </g>
    <g id="tripod_S04">
      <path id="route_01-4" data-name="route_01" class="cls-36" d="M864.68,440.45s-1.03-3.24,5.58-3.24"/>
      <path id="route_02-4" data-name="route_02" class="cls-14" d="M875.84,440.45s.57-3.24-5.58-3.24"/>
      <path id="route_03-4" data-name="route_03" class="cls-36" d="M875.84,440.45s-5.57,2.79-11.17,0"/>
      <line id="rotor_03-4" data-name="rotor_03" class="cls-17" x1="864.68" y1="440.45" x2="870.26" y2="447.21"/>
      <line id="rotor_02-4" data-name="rotor_02" class="cls-27" x1="870.26" y1="437.21" x2="870.26" y2="447.21"/>
      <line id="rotor_01-4" data-name="rotor_01" class="cls-17" x1="870.26" y1="447.21" x2="875.84" y2="440.45"/>
      <rect id="static-20" data-name="static" class="cls-7" x="863.05" y="444.05" width="14.42" height="6.3"/>
      <rect id="static-21" data-name="static" class="cls-1" x="863.48" y="444.48" width="13.56" height="5.45"/>
      <line id="static-22" data-name="static" class="cls-1" x1="863.05" y1="444.05" x2="863.48" y2="444.48"/>
      <line id="static-23" data-name="static" class="cls-1" x1="877.47" y1="444.05" x2="877.04" y2="444.48"/>
      <line id="static-24" data-name="static" class="cls-1" x1="877.47" y1="450.36" x2="877.04" y2="449.93"/>
      <line id="static-25" data-name="static" class="cls-1" x1="863.05" y1="450.36" x2="863.48" y2="449.93"/>
      <circle id="pivot-4" data-name="pivot" class="cls-14" cx="870.26" cy="447.21" r="1.23"/>
    </g>
  </g>
  <g id="person">
    <g id="person_A01">
      <circle id="pivot-5" data-name="pivot" class="cls-4" cx="327.42" cy="276.88" r="1.65"/>
      <line id="leaf" class="cls-13" x1="327.42" y1="276.88" x2="339.06" y2="276.88"/>
    </g>
    <g id="person_F03">
      <circle id="pivot-6" data-name="pivot" class="cls-4" cx="475.73" cy="276.88" r="1.65"/>
      <line id="leaf-2" data-name="leaf" class="cls-13" x1="475.73" y1="276.88" x2="464.08" y2="276.88"/>
    </g>
    <g id="person_E08">
      <circle id="pivot-7" data-name="pivot" class="cls-4" cx="453.44" cy="434.6" r="1.65"/>
      <line id="leaf-3" data-name="leaf" class="cls-13" x1="453.44" y1="434.6" x2="441.79" y2="434.6"/>
    </g>
    <g id="person_E07">
      <circle id="pivot-8" data-name="pivot" class="cls-4" cx="537.86" cy="434.6" r="1.65"/>
      <line id="leaf-4" data-name="leaf" class="cls-13" x1="537.86" y1="434.6" x2="526.21" y2="434.6"/>
    </g>
    <g id="person_D07">
      <circle id="pivot-9" data-name="pivot" class="cls-4" cx="452.62" cy="515.87" r="1.65"/>
      <line id="leaf-5" data-name="leaf" class="cls-13" x1="452.62" y1="515.87" x2="440.97" y2="515.87"/>
    </g>
    <g id="person_D06">
      <circle id="pivot-10" data-name="pivot" class="cls-4" cx="503.89" cy="515.87" r="1.65"/>
      <line id="leaf-6" data-name="leaf" class="cls-13" x1="503.89" y1="515.87" x2="492.25" y2="515.87"/>
    </g>
    <g id="person_F02">
      <circle id="pivot-11" data-name="pivot" class="cls-4" cx="646.39" cy="340.63" r="1.65"/>
      <line id="leaf-7" data-name="leaf" class="cls-13" x1="646.39" y1="340.63" x2="634.74" y2="340.63"/>
    </g>
    <g id="person_E06">
      <circle id="pivot-12" data-name="pivot" class="cls-4" cx="624.63" cy="434.6" r="1.65"/>
      <line id="leaf-8" data-name="leaf" class="cls-13" x1="624.63" y1="434.6" x2="612.98" y2="434.6"/>
    </g>
    <g id="person_E05">
      <circle id="pivot-13" data-name="pivot" class="cls-4" cx="673.98" cy="434.6" r="1.65"/>
      <line id="leaf-9" data-name="leaf" class="cls-13" x1="673.98" y1="434.6" x2="662.33" y2="434.6"/>
    </g>
    <g id="person_K06">
      <circle id="pivot-14" data-name="pivot" class="cls-4" cx="945.67" cy="434.6" r="1.65"/>
      <line id="leaf-10" data-name="leaf" class="cls-13" x1="945.67" y1="434.6" x2="934.02" y2="434.6"/>
    </g>
    <g id="person_K05">
      <circle id="pivot-15" data-name="pivot" class="cls-4" cx="978.35" cy="434.6" r="1.65"/>
      <line id="leaf-11" data-name="leaf" class="cls-13" x1="978.35" y1="434.6" x2="966.7" y2="434.6"/>
    </g>
    <g id="person_K04">
      <circle id="pivot-16" data-name="pivot" class="cls-4" cx="1012.89" cy="434.6" r="1.65"/>
      <line id="leaf-12" data-name="leaf" class="cls-13" x1="1012.89" y1="434.6" x2="1001.24" y2="434.6"/>
    </g>
    <g id="person_K07">
      <circle id="pivot-17" data-name="pivot" class="cls-4" cx="910.99" cy="434.6" r="1.65"/>
      <line id="leaf-13" data-name="leaf" class="cls-13" x1="910.99" y1="434.6" x2="899.34" y2="434.6"/>
    </g>
    <g id="person_E04">
      <circle id="pivot-18" data-name="pivot" class="cls-4" cx="778.87" cy="434.6" r="1.65"/>
      <line id="leaf-14" data-name="leaf" class="cls-13" x1="778.87" y1="434.6" x2="767.22" y2="434.6"/>
    </g>
    <g id="person_F01">
      <circle id="pivot-19" data-name="pivot" class="cls-4" cx="672.45" cy="340.63" r="1.65"/>
      <line id="leaf-15" data-name="leaf" class="cls-13" x1="672.45" y1="340.63" x2="660.8" y2="340.63"/>
    </g>
    <g id="person_E01">
      <circle id="pivot-20" data-name="pivot" class="cls-4" cx="620.83" cy="363.23" r="1.65"/>
      <line id="leaf-16" data-name="leaf" class="cls-13" x1="620.83" y1="363.23" x2="632.48" y2="363.23"/>
    </g>
    <g id="person_D01">
      <circle id="pivot-21" data-name="pivot" class="cls-4" cx="619.63" cy="452.12" r="1.65"/>
      <line id="leaf-17" data-name="leaf" class="cls-13" x1="619.63" y1="452.12" x2="631.28" y2="452.12"/>
    </g>
    <g id="person_D02">
      <circle id="pivot-22" data-name="pivot" class="cls-4" cx="675.63" cy="452.12" r="1.65"/>
      <line id="leaf-18" data-name="leaf" class="cls-13" x1="675.63" y1="452.12" x2="687.27" y2="452.12"/>
    </g>
    <g id="person_K02">
      <circle id="pivot-23" data-name="pivot" class="cls-4" cx="768.05" cy="452.12" r="1.65"/>
      <line id="leaf-19" data-name="leaf" class="cls-13" x1="768.05" y1="452.12" x2="779.7" y2="452.12"/>
    </g>
    <g id="person_K01">
      <circle id="pivot-24" data-name="pivot" class="cls-4" cx="895.16" cy="363.23" r="1.65"/>
      <line id="leaf-20" data-name="leaf" class="cls-13" x1="895.16" y1="363.23" x2="906.81" y2="363.23"/>
    </g>
    <g id="person_J01">
      <circle id="pivot-25" data-name="pivot" class="cls-4" cx="888.9" cy="452.12" r="1.65"/>
      <line id="leaf-21" data-name="leaf" class="cls-13" x1="888.9" y1="452.12" x2="900.55" y2="452.12"/>
    </g>
    <g id="person_J02">
      <circle id="pivot-26" data-name="pivot" class="cls-4" cx="927.24" cy="452.12" r="1.65"/>
      <line id="leaf-22" data-name="leaf" class="cls-13" x1="927.24" y1="452.12" x2="938.89" y2="452.12"/>
    </g>
    <g id="person_J03">
      <circle id="pivot-27" data-name="pivot" class="cls-4" cx="981.65" cy="452.12" r="1.65"/>
      <line id="leaf-23" data-name="leaf" class="cls-13" x1="981.65" y1="452.12" x2="993.3" y2="452.12"/>
    </g>
    <g id="person_J04">
      <circle id="pivot-28" data-name="pivot" class="cls-4" cx="1012.33" cy="452.12" r="1.65"/>
      <line id="leaf-24" data-name="leaf" class="cls-13" x1="1012.33" y1="452.12" x2="1023.98" y2="452.12"/>
    </g>
    <g id="person_D04">
      <circle id="pivot-29" data-name="pivot" class="cls-4" cx="940.2" cy="363.23" r="1.65"/>
      <line id="leaf-25" data-name="leaf" class="cls-13" x1="940.2" y1="363.23" x2="951.85" y2="363.23"/>
    </g>
    <g id="person_K03">
      <circle id="pivot-30" data-name="pivot" class="cls-4" cx="986.48" cy="363.23" r="1.65"/>
      <line id="leaf-26" data-name="leaf" class="cls-13" x1="986.48" y1="363.23" x2="998.12" y2="363.23"/>
    </g>
    <g id="person_D03">
      <circle id="pivot-31" data-name="pivot" class="cls-4" cx="706.29" cy="438.09" r="1.65"/>
      <line id="leaf-27" data-name="leaf" class="cls-13" x1="706.29" y1="438.09" x2="706.29" y2="449.74"/>
    </g>
    <g id="person_E03">
      <circle id="pivot-32" data-name="pivot" class="cls-4" cx="706.29" cy="346.61" r="1.65"/>
      <line id="leaf-28" data-name="leaf" class="cls-13" x1="706.29" y1="346.61" x2="706.29" y2="358.26"/>
    </g>
    <g id="person_E02">
      <circle id="pivot-33" data-name="pivot" class="cls-4" cx="686.73" cy="363.23" r="1.65"/>
      <line id="leaf-29" data-name="leaf" class="cls-13" x1="686.73" y1="363.23" x2="698.38" y2="363.23"/>
    </g>
    <g id="person_D05">
      <circle id="pivot-34" data-name="pivot" class="cls-4" cx="555.71" cy="515.87" r="1.65"/>
      <line id="leaf-30" data-name="leaf" class="cls-13" x1="555.71" y1="515.87" x2="544.06" y2="515.87"/>
    </g>
  </g>
  <g id="fullheight">
    <g id="fullheight_X01">
      <path id="leaf-31" data-name="leaf" class="cls-29" d="M599.02,443.14v5.86M599.06,443.14h5.85M599.02,443.14v-5.84M599.03,443.14h-5.82"/>
      <path id="static-26" data-name="static" class="cls-15" d="M605.46,443.15v6.2h-12.88v-6.19M605.5,437.55v-.65h-12.88v.65"/>
      <circle id="pivot-35" data-name="pivot" class="cls-12" cx="599.06" cy="443.14" r="5.85"/>
    </g>
    <g id="fullheight_X03">
      <path id="leaf-32" data-name="leaf" class="cls-29" d="M1041.37,351.91v-5.86M1041.34,351.91h-5.85M1041.37,351.91v5.84M1041.37,351.91h5.82"/>
      <path id="static-27" data-name="static" class="cls-15" d="M1034.94,351.91v-6.2h12.88v6.19M1034.9,357.5v.65h12.88v-.65"/>
      <circle id="pivot-36" data-name="pivot" class="cls-12" cx="1041.34" cy="351.91" r="5.85"/>
    </g>
    <g id="fullheight_X02">
      <path id="leaf-33" data-name="leaf" class="cls-29" d="M1041.37,290.45v-5.86M1041.34,290.45h-5.85M1041.37,290.45v5.84M1041.37,290.45h5.82"/>
      <path id="static-28" data-name="static" class="cls-15" d="M1034.94,290.44v-6.2h12.88v6.19M1034.9,296.04v.65h12.88v-.65"/>
      <circle id="pivot-37" data-name="pivot" class="cls-12" cx="1041.34" cy="290.45" r="5.85"/>
    </g>
    <g id="fullheight_X04">
      <path id="leaf-34" data-name="leaf" class="cls-29" d="M1041.37,443.34v-5.86M1041.34,443.34h-5.85M1041.37,443.34v5.84M1041.37,443.34h5.82"/>
      <path id="static-29" data-name="static" class="cls-15" d="M1034.94,443.33v-6.2h12.88v6.19M1034.9,448.93v.65h12.88v-.65"/>
      <circle id="pivot-38" data-name="pivot" class="cls-12" cx="1041.34" cy="443.34" r="5.85"/>
    </g>
  </g>
  <g id="vehicleBarrier">
    <g id="vehicleBarrier_10">
      <path id="static-30" data-name="static" class="cls-11" d="M595.88,541.3v8.28c0,.73-.59,1.31-1.31,1.31h-4.25c-.73,0-1.31-.59-1.31-1.31v-8.28c0-.73.59-1.31,1.31-1.31h4.25c.73,0,1.31.59,1.31,1.31ZM590,541.97v6.96c0,.4.32.72.72.72h3.43c.4,0,.72-.32.72-.72v-6.96c0-.4-.32-.72-.72-.72h-3.43c-.4,0-.72.32-.72.72Z"/>
      <circle id="pivot-39" data-name="pivot" class="cls-28" cx="592.44" cy="545.45" r="1.25"/>
      <path id="leaf-35" data-name="leaf" class="cls-32" d="M593.69,545.15v.58c0,.29-.24.53-.53.53h-29.92c-.29,0-.53-.24-.53-.53v-.58c0-.29.24-.53.53-.53h29.92c.29,0,.53.24.53.53ZM563.06,545.14v.62c0,.17.14.31.31.31h29.67c.17,0,.31-.14.31-.31v-.62c0-.17-.14-.31-.31-.31h-29.67c-.17,0-.31.14-.31.31ZM585.12,546.07l2.6-1.25M581.93,544.82l-2.6,1.25M576.15,544.82l-2.6,1.25M570.37,544.82l-2.6,1.25"/>
    </g>
    <g id="vehicleBarrier_11">
      <path id="static-31" data-name="static" class="cls-11" d="M318.23,541.3v8.28c0,.73-.59,1.31-1.31,1.31h-4.25c-.73,0-1.31-.59-1.31-1.31v-8.28c0-.73.59-1.31,1.31-1.31h4.25c.73,0,1.31.59,1.31,1.31ZM312.36,541.97v6.96c0,.4.32.72.72.72h3.43c.4,0,.72-.32.72-.72v-6.96c0-.4-.32-.72-.72-.72h-3.43c-.4,0-.72.32-.72.72Z"/>
      <circle id="pivot-40" data-name="pivot" class="cls-28" cx="314.79" cy="545.45" r="1.25"/>
      <path id="leaf-36" data-name="leaf" class="cls-32" d="M316.05,545.15v.58c0,.29-.24.53-.53.53h-29.92c-.29,0-.53-.24-.53-.53v-.58c0-.29.24-.53.53-.53h29.92c.29,0,.53.24.53.53ZM285.41,545.14v.62c0,.17.14.31.31.31h29.67c.17,0,.31-.14.31-.31v-.62c0-.17-.14-.31-.31-.31h-29.67c-.17,0-.31.14-.31.31ZM307.47,546.07l2.6-1.25M304.29,544.82l-2.6,1.25M298.5,544.82l-2.6,1.25M292.72,544.82l-2.6,1.25"/>
    </g>
    <g id="vehicleBarrier_9">
      <path id="static-32" data-name="static" class="cls-11" d="M742.3,541.3v8.28c0,.73-.59,1.31-1.31,1.31h-4.25c-.73,0-1.31-.59-1.31-1.31v-8.28c0-.73.59-1.31,1.31-1.31h4.25c.73,0,1.31.59,1.31,1.31ZM736.42,541.97v6.96c0,.4.32.72.72.72h3.43c.4,0,.72-.32.72-.72v-6.96c0-.4-.32-.72-.72-.72h-3.43c-.4,0-.72.32-.72.72Z"/>
      <circle id="pivot-41" data-name="pivot" class="cls-28" cx="738.86" cy="545.45" r="1.25"/>
      <path id="leaf-37" data-name="leaf" class="cls-32" d="M740.12,545.15v.58c0,.29-.24.53-.53.53h-29.92c-.29,0-.53-.24-.53-.53v-.58c0-.29.24-.53.53-.53h29.92c.29,0,.53.24.53.53ZM709.48,545.14v.62c0,.17.14.31.31.31h29.67c.17,0,.31-.14.31-.31v-.62c0-.17-.14-.31-.31-.31h-29.67c-.17,0-.31.14-.31.31ZM731.54,546.07l2.6-1.25M728.36,544.82l-2.6,1.25M722.57,544.82l-2.6,1.25M716.79,544.82l-2.6,1.25"/>
    </g>
    <g id="vehicleBarrier_8">
      <path id="static-33" data-name="static" class="cls-11" d="M1082.33,541.3v8.28c0,.73-.59,1.31-1.31,1.31h-4.25c-.73,0-1.31-.59-1.31-1.31v-8.28c0-.73.59-1.31,1.31-1.31h4.25c.73,0,1.31.59,1.31,1.31ZM1076.45,541.97v6.96c0,.4.32.72.72.72h3.43c.4,0,.72-.32.72-.72v-6.96c0-.4-.32-.72-.72-.72h-3.43c-.4,0-.72.32-.72.72Z"/>
      <circle id="pivot-42" data-name="pivot" class="cls-28" cx="1078.89" cy="545.45" r="1.25"/>
      <path id="leaf-38" data-name="leaf" class="cls-32" d="M1080.14,545.15v.58c0,.29-.24.53-.53.53h-29.92c-.29,0-.53-.24-.53-.53v-.58c0-.29.24-.53.53-.53h29.92c.29,0,.53.24.53.53ZM1049.51,545.14v.62c0,.17.14.31.31.31h29.67c.17,0,.31-.14.31-.31v-.62c0-.17-.14-.31-.31-.31h-29.67c-.17,0-.31.14-.31.31ZM1071.56,546.07l2.6-1.25M1068.38,544.82l-2.6,1.25M1062.6,544.82l-2.6,1.25M1056.81,544.82l-2.6,1.25"/>
    </g>
    <g id="vehicleBarrier_12">
      <path id="static-34" data-name="static" class="cls-11" d="M285.92,224.26v-8.28c0-.73.59-1.31,1.31-1.31h4.25c.73,0,1.31.59,1.31,1.31v8.28c0,.73-.59,1.31-1.31,1.31h-4.25c-.73,0-1.31-.59-1.31-1.31ZM291.8,223.6v-6.96c0-.4-.32-.72-.72-.72h-3.43c-.4,0-.72.32-.72.72v6.96c0,.4.32.72.72.72h3.43c.4,0,.72-.32.72-.72Z"/>
      <circle id="pivot-43" data-name="pivot" class="cls-28" cx="289.36" cy="220.12" r="1.25"/>
      <path id="leaf-39" data-name="leaf" class="cls-32" d="M288.1,220.41v-.58c0-.29.24-.53.53-.53h29.92c.29,0,.53.24.53.53v.58c0,.29-.24.53-.53.53h-29.92c-.29,0-.53-.24-.53-.53ZM318.74,220.43v-.62c0-.17-.14-.31-.31-.31h-29.67c-.17,0-.31.14-.31.31v.62c0,.17.14.31.31.31h29.67c.17,0,.31-.14.31-.31ZM296.68,219.5l-2.6,1.25M299.86,220.74l2.6-1.25M305.65,220.74l2.6-1.25M311.43,220.74l2.6-1.25"/>
    </g>
    <g id="vehicleBarrier_07">
      <path id="static-35" data-name="static" class="cls-11" d="M1049.16,281.02v-8.28c0-.73.59-1.31,1.31-1.31h4.25c.73,0,1.31.59,1.31,1.31v8.28c0,.73-.59,1.31-1.31,1.31h-4.25c-.73,0-1.31-.59-1.31-1.31ZM1055.04,280.36v-6.96c0-.4-.32-.72-.72-.72h-3.43c-.4,0-.72.32-.72.72v6.96c0,.4.32.72.72.72h3.43c.4,0,.72-.32.72-.72Z"/>
      <circle id="pivot-44" data-name="pivot" class="cls-28" cx="1052.61" cy="276.88" r="1.25"/>
      <path id="leaf-40" data-name="leaf" class="cls-32" d="M1051.35,277.17v-.58c0-.29.24-.53.53-.53h29.92c.29,0,.53.24.53.53v.58c0,.29-.24.53-.53.53h-29.92c-.29,0-.53-.24-.53-.53ZM1081.99,277.19v-.62c0-.17-.14-.31-.31-.31h-29.67c-.17,0-.31.14-.31.31v.62c0,.17.14.31.31.31h29.67c.17,0,.31-.14.31-.31ZM1059.93,276.26l-2.6,1.25M1063.11,277.51l2.6-1.25M1068.89,277.51l2.6-1.25M1074.68,277.51l2.6-1.25"/>
    </g>
  </g>
  <g id="trainBarrier">
    <g id="trainBarrier_02">
      <path id="static-36" data-name="static" class="cls-11" d="M865.6,261.66v8.28c0,.73-.59,1.31-1.31,1.31h-4.25c-.73,0-1.31-.59-1.31-1.31v-8.28c0-.73.59-1.31,1.31-1.31h4.25c.73,0,1.31.59,1.31,1.31ZM859.73,262.33v6.96c0,.4.32.72.72.72h3.43c.4,0,.72-.32.72-.72v-6.96c0-.4-.32-.72-.72-.72h-3.43c-.4,0-.72.32-.72.72Z"/>
      <circle id="pivot-45" data-name="pivot" class="cls-28" cx="862.16" cy="265.8" r="1.25"/>
      <path id="leaf-41" data-name="leaf" class="cls-38" d="M863.42,265.51v.58c0,.29-.24.53-.53.53h-29.92c-.29,0-.53-.24-.53-.53v-.58c0-.29.24-.53.53-.53h29.92c.29,0,.53.24.53.53ZM832.78,265.49v.62c0,.17.14.31.31.31h29.67c.17,0,.31-.14.31-.31v-.62c0-.17-.14-.31-.31-.31h-29.67c-.17,0-.31.14-.31.31ZM854.84,266.43l2.6-1.25M851.66,265.18l-2.6,1.25M845.87,265.18l-2.6,1.25M840.09,265.18l-2.6,1.25"/>
    </g>
    <g id="trainBarrier_01">
      <path id="static-37" data-name="static" class="cls-11" d="M796.99,269.95v-8.28c0-.73.59-1.31,1.31-1.31h4.25c.73,0,1.31.59,1.31,1.31v8.28c0,.73-.59,1.31-1.31,1.31h-4.25c-.73,0-1.31-.59-1.31-1.31ZM802.87,269.28v-6.96c0-.4-.32-.72-.72-.72h-3.43c-.4,0-.72.32-.72.72v6.96c0,.4.32.72.72.72h3.43c.4,0,.72-.32.72-.72Z"/>
      <circle id="pivot-46" data-name="pivot" class="cls-28" cx="800.43" cy="265.8" r="1.25"/>
      <path id="leaf-42" data-name="leaf" class="cls-38" d="M799.18,266.1v-.58c0-.29.24-.53.53-.53h29.92c.29,0,.53.24.53.53v.58c0,.29-.24.53-.53.53h-29.92c-.29,0-.53-.24-.53-.53ZM829.81,266.12v-.62c0-.17-.14-.31-.31-.31h-29.67c-.17,0-.31.14-.31.31v.62c0,.17.14.31.31.31h29.67c.17,0,.31-.14.31-.31ZM807.75,265.18l-2.6,1.25M810.93,266.43l2.6-1.25M816.72,266.43l2.6-1.25M822.5,266.43l2.6-1.25"/>
    </g>
  </g>
</svg>