<?xml version="1.0" encoding="UTF-8"?>
<svg xmlns="http://www.w3.org/2000/svg" viewBox="0 0 1219.96 509.67">
  <defs>
    <style>
      .cls-1 {
        stroke: #f2f2f2;
      }

      .cls-1, .cls-2, .cls-3, .cls-4, .cls-5, .cls-6, .cls-7, .cls-8, .cls-9 {
        fill: none;
        stroke-miterlimit: 10;
      }

      .cls-2, .cls-4 {
        stroke: #5df;
      }

      .cls-3 {
        stroke: #fff;
      }

      .cls-4, .cls-5 {
        stroke-width: 3px;
      }

      .cls-5 {
        stroke: #5df;
      }

      .cls-6 {
        stroke: #fffcfc;
      }

      .cls-7 {
        stroke: #c7f7ff;
      }

      .cls-7, .cls-8 {
        stroke-width: 6px;
      }

      .cls-8, .cls-9 {
        stroke: #c7f7ff;
      }

      .cls-9 {
        stroke-width: 2px;
      }
    </style>
  </defs>
  <g id="gate_tripod_A_01">
    <path id="gate_tripod_A_01_route_01" class="cls-1" d="M509.91,23.4s30.21-9.65,30.21,52.06"/>
    <path id="gate_tripod_A_01_route_02" class="cls-3" d="M509.91,127.53s30.21,5.33,30.21-52.06"/>
    <path id="gate_tripod_A_01_route_03" class="cls-1" d="M509.91,127.53s-26.03-51.94,0-104.13"/>
    <line id="gate_tripod_A_01_rotor_03" class="cls-7" x1="509.91" y1="23.4" x2="446.93" y2="75.47"/>
    <line id="gate_tripod_A_01_rotor_02" class="cls-8" x1="540.12" y1="75.47" x2="446.93" y2="75.47"/>
    <line id="gate_tripod_A_01_rotor_01" class="cls-7" x1="446.93" y1="75.47" x2="509.91" y2="127.53"/>
    <rect id="gate_tripod_A_01_static" class="cls-4" x="417.53" y="8.23" width="58.79" height="134.48"/>
    <rect id="gate_tripod_A_01_static-2" data-name="gate_tripod_A_01_static" class="cls-2" x="421.53" y="12.23" width="50.79" height="126.48"/>
    <line id="gate_tripod_A_01_static-3" data-name="gate_tripod_A_01_static" class="cls-2" x1="476.32" y1="8.23" x2="472.32" y2="12.23"/>
    <line id="gate_tripod_A_01_static-4" data-name="gate_tripod_A_01_static" class="cls-2" x1="476.32" y1="142.71" x2="472.32" y2="138.71"/>
    <line id="gate_tripod_A_01_static-5" data-name="gate_tripod_A_01_static" class="cls-2" x1="417.53" y1="142.71" x2="421.53" y2="138.71"/>
    <line id="gate_tripod_A_01_static-6" data-name="gate_tripod_A_01_static" class="cls-2" x1="417.53" y1="8.23" x2="421.53" y2="12.23"/>
    <circle id="gate_tripod_A_01_pivot" class="cls-3" cx="446.93" cy="75.47" r="11.43"/>
  </g>
  <g id="gate_tripod_A_02">
    <path id="gate_tripod_A_02_route_01" class="cls-1" d="M243.8,245.88s-9.65-30.21,52.06-30.21"/>
    <path id="gate_tripod_A_02_route_02" class="cls-3" d="M347.93,245.88s5.33-30.21-52.06-30.21"/>
    <path id="gate_tripod_A_02_route_03" class="cls-1" d="M347.93,245.88s-51.94,26.03-104.13,0"/>
    <line id="gate_tripod_A_02_rotor_03" class="cls-7" x1="243.8" y1="245.88" x2="295.86" y2="308.86"/>
    <line id="gate_tripod_A_02_rotor_02" class="cls-8" x1="295.86" y1="215.67" x2="295.86" y2="308.86"/>
    <line id="gate_tripod_A_02_rotor_01" class="cls-7" x1="295.86" y1="308.86" x2="347.93" y2="245.88"/>
    <rect id="gate_tripod_A_02_static" class="cls-4" x="228.63" y="279.47" width="134.48" height="58.79"/>
    <rect id="gate_tripod_A_02_static-2" data-name="gate_tripod_A_02_static" class="cls-2" x="232.63" y="283.47" width="126.48" height="50.79"/>
    <line id="gate_tripod_A_02_static-3" data-name="gate_tripod_A_02_static" class="cls-2" x1="228.63" y1="279.47" x2="232.63" y2="283.47"/>
    <line id="gate_tripod_A_02_static-4" data-name="gate_tripod_A_02_static" class="cls-2" x1="363.1" y1="279.47" x2="359.1" y2="283.47"/>
    <line id="gate_tripod_A_02_static-5" data-name="gate_tripod_A_02_static" class="cls-2" x1="363.1" y1="338.26" x2="359.1" y2="334.26"/>
    <line id="gate_tripod_A_02_static-6" data-name="gate_tripod_A_02_static" class="cls-2" x1="228.63" y1="338.26" x2="232.63" y2="334.26"/>
    <circle id="gate_tripod_A_02_pivot" class="cls-3" cx="295.86" cy="308.86" r="11.43"/>
  </g>
  <g id="gate_person_A_01">
    <line id="gate_person_A_01_leaf" class="cls-7" x1="203.4" y1="187.02" x2="203.4" y2="296.74"/>
    <circle id="gate_person_A_01_pivot" class="cls-6" cx="203.4" cy="187.02" r="12.24"/>
  </g>
  <g id="gate_person_A_02">
    <circle id="gate_person_A_02_pivot" class="cls-6" cx="44.36" cy="119.48" r="12.24"/>
    <line id="gate_person_A_02_leaf" class="cls-7" x1="44.36" y1="119.48" x2="154.07" y2="119.48"/>
  </g>
  <g id="gate_fullheight_A_01">
    <path id="gate_fullheight_A_01_leaf" class="cls-8" d="M854.79,71.4h-63.52M854.83,71.76v65.62M854.79,71.4h63.28M854.83,71.44V5.56"/>
    <ellipse id="gate_fullheight_A_01_pivot" class="cls-1" cx="854.67" cy="71.47" rx="12.1" ry="12.58"/>
    <path id="gate_fullheight_A_01_static" class="cls-4" d="M854.72,141.18h-67.21V1.5h67.16M915.4,141.6h7.05V1.91h-7.05"/>
  </g>
  <g id="gate_barrier_A_01">
    <path id="gate_barrier_A_01_static" class="cls-5" d="M733.53,488.93v-121.23c0-10.63,8.61-19.24,19.24-19.24h62.26c10.63,0,19.24,8.61,19.24,19.24v121.23c0,10.63-8.61,19.24-19.24,19.24h-62.25c-10.63,0-19.24-8.61-19.24-19.24ZM819.58,479.23v-101.84c0-5.86-4.75-10.6-10.6-10.6h-50.16c-5.86,0-10.6,4.75-10.6,10.6v101.84c0,5.86,4.75,10.6,10.6,10.6h50.16c5.86,0,10.6-4.75,10.6-10.6Z"/>
    <circle id="gate_barrier_A_01_pivot" class="cls-1" cx="783.89" cy="428.31" r="18.37"/>
    <path id="gate_barrier_A_01_leaf" class="cls-9" d="M765.53,432.59v-8.55c0-4.29,3.48-7.77,7.77-7.77h437.89c4.29,0,7.77,3.48,7.77,7.77v8.55c0,4.29-3.48,7.77-7.77,7.77h-437.89c-4.29,0-7.77-3.48-7.77-7.77ZM1213.96,432.86v-9.11c0-2.52-2.05-4.57-4.57-4.57h-434.28c-2.52,0-4.57,2.05-4.57,4.57v9.11c0,2.52,2.05,4.57,4.57,4.57h434.28c2.52,0,4.57-2.05,4.57-4.57ZM891.07,419.18l-38.1,18.25M937.64,437.44l38.1-18.25M1022.32,437.44l38.1-18.25M1106.99,437.44l38.1-18.25"/>
  </g>
  <g id="gate_barrier_A_02">
    <path id="gate_barrier_A_02_static" class="cls-5" d="M539.89,444.69v-121.23c0-10.63,8.61-19.24,19.24-19.24h62.26c10.63,0,19.24,8.61,19.24,19.24v121.23c0,10.63-8.61,19.24-19.24,19.24h-62.25c-10.63,0-19.24-8.61-19.24-19.24ZM625.94,434.99v-101.84c0-5.86-4.75-10.6-10.6-10.6h-50.16c-5.86,0-10.6,4.75-10.6,10.6v101.84c0,5.86,4.75,10.6,10.6,10.6h50.16c5.86,0,10.6-4.75,10.6-10.6Z"/>
    <circle id="gate_barrier_A_02_pivot" class="cls-1" cx="590.26" cy="384.07" r="18.37"/>
    <path id="gate_barrier_A_02_leaf" class="cls-9" d="M571.89,388.35v-8.55c0-4.29,3.48-7.77,7.77-7.77h437.89c4.29,0,7.77,3.48,7.77,7.77v8.55c0,4.29-3.48,7.77-7.77,7.77h-437.89c-4.29,0-7.77-3.48-7.77-7.77ZM1020.32,388.63v-9.11c0-2.52-2.05-4.57-4.57-4.57h-434.28c-2.52,0-4.57,2.05-4.57,4.57v9.11c0,2.52,2.05,4.57,4.57,4.57h434.28c2.52,0,4.57-2.05,4.57-4.57ZM697.43,374.95l-38.1,18.25M744.01,393.2l38.1-18.25M828.68,393.2l38.1-18.25M913.35,393.2l38.1-18.25"/>
  </g>
  <g id="static">
    <polyline id="wall" class="cls-4" points="203.4 296.74 203.4 419.79 1.5 419.79 1.5 119.48 44.74 119.48"/>
    <polyline id="wall-2" data-name="wall" class="cls-4" points="154.45 119.48 203.4 119.48 203.4 187.02"/>
    <polyline id="wall-3" data-name="wall" class="cls-4" points="922.45 71.21 962.14 71.21 962.14 245.88 754.12 245.88 754.12 71.21 787.51 71.21"/>
    <polyline id="wall-4" data-name="wall" class="cls-4" points="417.53 75.33 295.86 75.33 295.86 215.67"/>
    <polyline id="wall-5" data-name="wall" class="cls-4" points="540.12 75.33 656.23 75.33 656.23 419.79 295.86 419.79 295.86 338.26"/>
  </g>
</svg>