<?xml version="1.0" encoding="UTF-8"?>
<svg xmlns="http://www.w3.org/2000/svg" viewBox="0 0 1920 1080">
  <defs>
    <style>
      .cls-1 {
        stroke: #f2f2f2;
      }

      .cls-1, .cls-2, .cls-3, .cls-4, .cls-5, .cls-6, .cls-7 {
        fill: none;
        stroke-miterlimit: 10;
      }

      .cls-2, .cls-4 {
        stroke: #5df;
      }

      .cls-3 {
        stroke: #fff;
      }

      .cls-4 {
        stroke-width: 3px;
      }

      .cls-5 {
        stroke: #fffcfc;
      }

      .cls-6 {
        stroke: #c7f7ff;
      }

      .cls-6, .cls-7 {
        stroke-width: 6px;
      }

      .cls-7 {
        stroke: #c7f7ff;
      }
    </style>
  </defs>
  <g id="gate_tripod_A_01">
    <path id="gate_tripod_A_01_route_01" class="cls-1" d="M1005.41,350.33s30.21-9.65,30.21,52.06"/>
    <path id="gate_tripod_A_01_route_02" class="cls-3" d="M1005.41,454.46s30.21,5.33,30.21-52.06"/>
    <path id="gate_tripod_A_01_route_03" class="cls-1" d="M1005.41,454.46s-26.03-51.94,0-104.13"/>
    <circle id="gate_tripod_A_01_pivot" class="cls-1" cx="942.43" cy="402.4" r="11.43"/>
  </g>
  <g id="gate_tripod_A_02">
    <path id="gate_tripod_A_02_route_01" class="cls-1" d="M739.3,572.81s-9.65-30.21,52.06-30.21"/>
    <path id="gate_tripod_A_02_route_02" class="cls-3" d="M843.43,572.81s5.33-30.21-52.06-30.21"/>
    <path id="gate_tripod_A_02_route_03" class="cls-1" d="M843.43,572.81s-51.94,26.03-104.13,0"/>
    <line id="gate_tripod_A_02_rotor_03" class="cls-6" x1="739.3" y1="572.81" x2="791.36" y2="635.79"/>
    <line id="gate_tripod_A_02_rotor_02" class="cls-7" x1="791.36" y1="542.6" x2="791.36" y2="635.79"/>
    <line id="gate_tripod_A_02_rotor_01" class="cls-6" x1="791.36" y1="635.79" x2="843.43" y2="572.81"/>
    <rect id="gate_tripod_A_02_static" class="cls-4" x="724.13" y="606.4" width="134.48" height="58.79"/>
    <rect id="gate_tripod_A_02_static-2" data-name="gate_tripod_A_02_static" class="cls-2" x="728.13" y="610.4" width="126.48" height="50.79"/>
    <line id="gate_tripod_A_02_static-3" data-name="gate_tripod_A_02_static" class="cls-2" x1="724.13" y1="606.4" x2="728.13" y2="610.4"/>
    <line id="gate_tripod_A_02_static-4" data-name="gate_tripod_A_02_static" class="cls-2" x1="858.6" y1="606.4" x2="854.6" y2="610.4"/>
    <line id="gate_tripod_A_02_static-5" data-name="gate_tripod_A_02_static" class="cls-2" x1="858.6" y1="665.19" x2="854.6" y2="661.19"/>
    <line id="gate_tripod_A_02_static-6" data-name="gate_tripod_A_02_static" class="cls-2" x1="724.13" y1="665.19" x2="728.13" y2="661.19"/>
    <circle id="gate_tripod_A_02_pivot" class="cls-1" cx="791.36" cy="635.79" r="11.43"/>
  </g>
  <g id="gate_person_A_01">
    <line id="gate_person_A_01_leaf" class="cls-6" x1="698.9" y1="513.95" x2="698.9" y2="623.67"/>
    <circle id="gate_person_A_01_pivot" class="cls-5" cx="698.9" cy="513.95" r="12.24"/>
  </g>
  <g id="gate_person_A_02">
    <circle id="gate_person_A_02_pivot" class="cls-5" cx="539.86" cy="446.41" r="12.24"/>
    <line id="gate_person_A_02_leaf" class="cls-6" x1="539.86" y1="446.41" x2="649.57" y2="446.41"/>
  </g>
  <g id="static">
    <polyline id="wall" class="cls-4" points="698.9 623.67 698.9 746.71 497 746.71 497 446.41 540.24 446.41"/>
    <polyline id="wall-2" data-name="wall" class="cls-4" points="649.95 446.41 698.9 446.41 698.9 513.95"/>
    <polyline id="wall-3" data-name="wall" class="cls-4" points="1331.35 555.61 1380.3 555.61 1380.3 404.75 1178.4 404.75 1178.4 555.61 1221.63 555.61"/>
    <polyline id="wall-4" data-name="wall" class="cls-4" points="913.03 402.25 791.36 402.25 791.36 542.6"/>
    <polyline id="wall-5" data-name="wall" class="cls-4" points="1035.62 402.25 1151.73 402.25 1151.73 746.71 791.36 746.71 791.36 665.19"/>
  </g>
</svg>